<?xml version="1.0" encoding="UTF-8"?>
<svg id="icon-avrotros-logo" xmlns="http://www.w3.org/2000/svg" version="1.1" viewBox="0 0 98 72">
  <!-- Generator: Adobe Illustrator 30.1.0, SVG Export Plug-In . SVG Version: 2.1.1 Build 136)  -->
  <defs>
    <style>
      .st0 {
        display: none;
        fill: #00ffdf;
        fill-rule: evenodd;
      }

      .st1 {
        fill: #fff;
      }
    </style>
  </defs>
  <path class="st0" d="M32.2,37c.9,0,1.4.4,1.4,1.4,0,2.3,0,4.7,0,7,0,1-.4,1.4-1.4,1.4h-9.6v23.7c0,1.1-.3,1.5-1.5,1.5-2.9,0-5.7,0-8.6,0-1.1,0-1.4-.3-1.4-1.4v-11.5s0-12.3,0-12.3H1.6c-1,0-1.4-.4-1.4-1.4,0-2.3,0-4.7,0-7,0-1,.4-1.4,1.4-1.4,10.2,0,20.4,0,30.6,0h0ZM51.7,37.1c2.7,0,5.2.8,7.2,2.6,1.8,1.6,2.6,3.8,2.7,6.1.1,2.6-.3,5-2.1,7.1-.3.3-.6.6-1,.9-.3.2-.3.4-.2.7,1.1,2.5,2.1,4.9,3.2,7.4.5,1.1.2,1.6-1,1.6-2.5,0-5,0-7.5,0-.9,0-1.1-.2-1.5-1-.8-2-1.6-3.9-2.4-5.9-.2-.4-.4-.6-.8-.6-.9,0-1.8,0-2.7,0-.5,0-.7.2-.7.7,0,1.8,0,3.6,0,5.3,0,1-.4,1.4-1.4,1.4-2.1,0-4.2,0-6.3,0-1,0-1.4-.4-1.4-1.4v-23.4c0-1.1.4-1.5,1.5-1.5,4.7,0,9.5,0,14.2,0ZM77,37.3c3.6,1,6,3.8,6.5,7.5.3,2,.2,4-.4,6-1.1,3.3-3.5,5.2-6.9,5.8-.9.2-1.8.2-2.7.2-1.9,0-3.7-.2-5.4-1.1-2.4-1.1-3.9-3-4.6-5.5-.7-2.5-.6-5,.3-7.5,1.2-3.2,3.7-5,6.9-5.5,2.1-.4,4.2-.4,6.3.2ZM70.6,44.8c-.5,1.2-.5,2.5,0,3.8.4,1.2,1.5,1.8,2.9,1.8h.2c1.4,0,2.3-.8,2.7-2.1.1-.5.2-1,.2-1.5,0-.5-.1-1.1-.3-1.6-.3-1.2-1.2-1.9-2.4-2h-.2c-1.4,0-2.5.5-3,1.7ZM94.4,37.6c1.3.5,2,1.5,2.1,2.9,0,.6-.1.8-.7.8-1,0-2,0-2.9,0-.4,0-.6-.2-.7-.5-.3-.8-1.9-1.1-2.4-.4-.4.4-.1,1,.6,1.2.8.2,1.5.3,2.3.4.7.2,1.5.3,2.2.6,1.4.7,2.1,1.8,2,3.4,0,1.6-.8,2.8-2.2,3.4-2.5,1.1-5.1,1-7.6,0-1.3-.5-1.9-1.6-2-3,0-.6.2-.8.8-.8.5,0,1,0,1.6,0,.5,0,1,0,1.6,0,.4,0,.5.1.7.5.3.9,1.8,1.2,2.4.5.4-.4.2-1-.3-1.2-.8-.2-1.5-.3-2.3-.5-.6-.1-1.2-.2-1.8-.5-1.4-.5-2.4-1.4-2.6-3.1-.1-1.7.6-3.1,2.2-3.7,2.4-1,4.9-1,7.3,0h0ZM48.5,44.6h-.7s0,0,0,0h-1.5s-.7,0-.7,0c-.3,0-.5,0-.5.5,0,1.2,0,2.4,0,3.6,0,.4.2.5.5.5.9,0,1.9,0,2.8,0h1.4c.4,0,.8-.1,1.2-.2.6-.2,1-.7,1.2-1.4.3-1.5-.5-2.7-2.1-2.9h-.2c-.5,0-1,0-1.5,0h0ZM94.2,22.8c1.8,1,2.7,2.7,2.9,4.8,0,.3,0,.6,0,1,0,1.7-.3,3.4-1.6,4.6-.7.6-1.5,1.2-2.3,1.5-1.8.7-3.6.7-5.4,0-2.6-.9-4.1-2.9-4.1-5.8,0-1.1.2-2.2.5-3.3.6-1.7,1.9-2.9,3.6-3.4,2.2-.6,4.4-.6,6.4.6ZM25.8,0c.8,0,1.2.3,1.5,1,1.3,3.4,2.6,6.8,3.9,10.1,2.3,6,4.5,12,6.8,18,.5,1.5,1.1,2.9,1.7,4.3.4,1,0,1.5-1,1.5-3.2,0-6.4,0-9.6,0-.9,0-1.2-.2-1.5-1.1-.5-1.3-.9-2.6-1.3-4-.1-.4-.3-.5-.7-.5-3.8,0-7.7,0-11.5,0-.4,0-.6.1-.8.6-.4,1.3-.9,2.7-1.3,4-.3.8-.6,1-1.4,1-3.1,0-6.2,0-9.4,0-1,0-1.3-.5-1-1.4.9-2.5,1.8-5,2.7-7.6,1.8-5.1,3.7-10.2,5.5-15.4,1.2-3.2,2.3-6.5,3.5-9.7.2-.7.7-1,1.4-1,2.1,0,4.2,0,6.3,0s4.1,0,6.2,0ZM64.9,15.9c3.8,0,7.6,0,11.4.1,1.8,0,3.5.8,4.7,2.2,2.2,2.4,2.4,7.4-.5,9.8-.3.3-.3.5-.2.8.7,1.6,1.4,3.3,2.1,4.9.4.9.1,1.2-.9,1.2-1.7,0-3.4,0-5.1,0-.9,0-1-.1-1.4-.9-.5-1.3-1.1-2.7-1.6-4,0-.2-.3-.4-.4-.4-.8,0-1.7,0-2.6,0v4.1c0,1-.3,1.3-1.2,1.3-1.4,0-2.8,0-4.3,0-.9,0-1.2-.3-1.2-1.2v-16.6c0-.9.3-1.3,1.1-1.3h0ZM63.5,8.6c.9,0,1.2.4.9,1.3l-4.7,13.5c-1.2,3.5-2.4,7-3.7,10.5-.3.9-.7,1.2-1.6,1.2-1.7,0-3.3,0-5,0h-4.8c-1.1,0-1.4-.2-1.8-1.2-2.7-7.2-5.4-14.4-8.2-21.5-.3-.8-.6-1.7-.9-2.5-.2-.7,0-1.2.8-1.2,2.9,0,5.8,0,8.7,0,.7,0,1,.4,1.2,1,1,3.2,2.1,6.4,3.1,9.6.5,1.6,1,3.2,1.6,4.8,0,.2.3.4.4.6.2-.2.4-.4.4-.6,1.1-3.6,2.2-7.1,3.3-10.7.4-1.2.7-2.4,1.1-3.6.2-.7.6-1,1.3-1,2.6,0,5.3,0,7.9,0h0ZM90.4,26.3c-1.4,0-2.1.8-2.1,2.3,0,1.4.8,2.2,2.1,2.2h.2c1.2,0,1.9-.9,1.9-2.2,0-1.5-.7-2.3-2.1-2.3ZM71.7,21.4c-.3,0-.5,0-.8,0-.1,0-.4.2-.4.3,0,.9,0,1.7,0,2.6,0,.1.2.4.3.4h1.4s.7,0,.7,0c.5,0,.9,0,1.4,0,.9,0,1.4-.7,1.3-1.6,0-.8-.5-1.5-1.4-1.6-.1,0-.2,0-.4,0h-.4c-.3,0-.5,0-.8,0h-.4s0,0,0,0c-.1,0-.3,0-.4,0,0,0-.4,0-.4,0ZM19.6,11.2c-.2.2-.4.4-.5.6-.8,2.3-1.5,4.6-2.3,6.9-.3.8-.5,1.6-.8,2.4h7c0-.1,0-.2,0-.2-1-3-2-6.1-3.1-9.1,0-.2-.3-.4-.4-.6h0Z"/>
  <path class="st1" d="M14.8,0h9.3l14.8,35h-10.3l-2.5-6.2h-13.4l-2.5,6.2H0L14.8,0ZM23.3,21.3l-3.9-9.9-3.9,9.9h7.8Z"/>
  <path class="st1" d="M35,8.6h8.1l6,16.6,6-16.6h8l-10.7,26.4h-6.8l-10.7-26.4Z"/>
  <path class="st1" d="M64.6,15.9h9c2.9,0,4.9.8,6.2,2.1,1.1,1.1,1.7,2.6,1.7,4.4h0c0,3-1.6,4.9-3.9,5.9l4.6,6.7h-6.1l-3.8-5.8h-2.3v5.8h-5.3V15.9ZM73.4,25.1c1.8,0,2.8-.9,2.8-2.3h0c0-1.6-1.1-2.3-2.9-2.3h-3.5v4.6h3.5Z"/>
  <path class="st1" d="M83.5,28.6h0c0-3.7,2.9-6.7,6.9-6.7s6.8,2.9,6.8,6.6h0c0,3.7-2.9,6.7-6.9,6.7s-6.8-2.9-6.8-6.6ZM93.6,28.6h0c0-1.9-1.3-3.5-3.3-3.5s-3.2,1.6-3.2,3.4h0c0,1.9,1.3,3.5,3.3,3.5s3.2-1.6,3.2-3.4Z"/>
  <path class="st1" d="M2.1,66.4l5.2-6.2c3.3,2.7,7.1,4.1,11,4.1s3.9-.9,3.9-2.3h0c0-1.5-1.1-2.3-5.7-3.3-7.2-1.6-12.7-3.7-12.7-10.6h0c0-6.4,5-10.9,13.1-10.9s10.2,1.5,13.9,4.5l-4.7,6.6c-3.1-2.2-6.5-3.3-9.5-3.3s-3.4,1-3.4,2.2h0c0,1.6,1.2,2.3,5.8,3.4,7.8,1.7,12.6,4.2,12.6,10.5h0c0,7-5.5,11.1-13.7,11.1s-11.7-1.9-15.8-5.6Z"/>
  <path class="st1" d="M35,50.3h0c0-7.4,5.9-13.3,13.7-13.3s13.6,5.8,13.6,13.1h0c0,7.4-5.9,13.3-13.7,13.3s-13.6-5.8-13.6-13.1ZM55.2,50.3h0c0-3.7-2.6-6.9-6.5-6.9s-6.4,3.1-6.4,6.8h0c0,3.7,2.6,6.9,6.5,6.9s6.4-3.1,6.4-6.8Z"/>
  <path class="st1" d="M64.2,46.8h0c0-5.6,4.3-10,10.1-10s6.4,1.6,8.1,4l-4,3.1c-1.1-1.4-2.3-2.2-4.2-2.2-2.7,0-4.5,2.3-4.5,5h0c0,2.9,1.9,5.1,4.5,5.1s3.2-.9,4.3-2.3l4,2.8c-1.8,2.5-4.2,4.3-8.4,4.3s-9.8-4.2-9.8-9.9Z"/>
  <path class="st1" d="M84.9,36.8h3.7v5.4l4.6-5.4h4.4l-5.1,5.7,5.2,7.6h-4.4l-3.4-5-1.4,1.5v3.5h-3.7v-13.4Z"/>
</svg>