<?xml version="1.0" encoding="utf-8"?>
<!-- Generator: Adobe Illustrator 30.1.0, SVG Export Plug-In . SVG Version: 9.03 Build 0)  -->
<svg version="1.0"
	 id="svg2" xmlns:cc="http://creativecommons.org/ns#" xmlns:dc="http://purl.org/dc/elements/1.1/" xmlns:inkscape="http://www.inkscape.org/namespaces/inkscape" xmlns:sodipodi="http://sodipodi.sourceforge.net/DTD/sodipodi-0.dtd" xmlns:rdf="http://www.w3.org/1999/02/22-rdf-syntax-ns#" xmlns:svg="http://www.w3.org/2000/svg"
	 xmlns="http://www.w3.org/2000/svg" xmlns:xlink="http://www.w3.org/1999/xlink" x="0px" y="0px" viewBox="0 0 300 86.2"
	 style="enable-background:new 0 0 300 86.2;" xml:space="preserve">
<style type="text/css">
	.st0{fill:#FFFFFF;}
</style>
<sodipodi:namedview  bordercolor="#666666" borderopacity="1" gridtolerance="10" guidetolerance="10" id="namedview20" inkscape:current-layer="svg2" inkscape:cx="138.85308" inkscape:cy="53.495894" inkscape:pageopacity="0" inkscape:pageshadow="2" inkscape:window-height="480" inkscape:window-maximized="0" inkscape:window-width="640" inkscape:window-x="1209" inkscape:window-y="244" inkscape:zoom="0.82337429" objecttolerance="10" pagecolor="#ffffff" showgrid="false">
	</sodipodi:namedview>
<g id="g6" transform="translate(-27.1382,-941.70395)">
	<g id="g12" transform="matrix(0.82302261,0,0,-0.82302261,85.355129,997.27701)">
		<path id="path14" class="st0" d="M0,0c0-11.2-14-10.6-14-10.6h-14V9.8h14C0.4,9.8,0,0,0,0 M-28,40.8h10.7
			c11.1-0.6,10.7-8.8,10.7-8.8c0-10.2-12.2-10.4-12.2-10.4H-28V40.8z M-2.6,17.5c0,0,9.6,4.1,9.5,14.9c0,0,1.5,17.7-22.1,19.9h-26.1
			v-74.4h29.9c0,0,25-0.1,25,21C13.7-1.1,14.2,13.3-2.6,17.5 M-70.1,66.9H39.7V-36.6H-70.1V66.9z"/>
	</g>
	<g id="g16" transform="matrix(0.82302261,0,0,-0.82302261,308.1885,958.5961)">
		<path id="path18" class="st0" d="M0,0v-13.7c0,0-13.4,8.2-28.2,8.4c0,0-27.7,0.5-28.9-26.5c0,0-1-24.9,28.6-26.3
			c0,0,12.4-1.5,29.2,9.2v-14.2c0,0-22.6-13.4-48.7-3.1c0,0-22,8-22.8,34.4c0,0-0.9,27.1,28.4,36.1c0,0,7.8,3,21.9,1.7
			C-20.6,5.9-12.2,5.1,0,0 M-87.5-83.6H22.4V19.9H-87.5V-83.6z"/>
	</g>
</g>
<path class="st0" d="M104.8,0.5v85.2h90.4V0.5H104.8z M145.3,77.5c-2.8,0-6.2-0.2-11.3-0.8V66c5.2,0.5,8.5,0.7,11,0.7
	c7.7,0,11.4-2.4,11.4-7.7c0-3.4-1.7-6-6.7-9.3l-6.8-4.4c-6.6-4.4-9.8-9.7-9.8-16.4c0-10.6,7.7-17,20.9-17c2.8,0,5.8,0.3,9.4,0.8
	v10.1c-3.5-0.4-6.5-0.8-9-0.8c-6.6,0-9.9,2.3-9.9,6.5c0,3,1.7,5.3,5.9,8l5.9,3.8c8,5.1,11.6,10.9,11.6,18.4
	C167.8,70.7,159.6,77.5,145.3,77.5z"/>
</svg>
