<?xml version="1.0" encoding="UTF-8"?>
<svg id="Ebene_1" data-name="Ebene 1" xmlns="http://www.w3.org/2000/svg" viewBox="0 0 63.17 16.89">
  <defs>
    <style>
      .cls-1 {
        fill: #fff;
      }
    </style>
  </defs>
  <path class="cls-1" d="M8.59,9.47h-1.23v2.52h1.23c1.2,0,1.83-.43,1.83-1.32s-.61-1.21-1.83-1.21Z"/>
  <path class="cls-1" d="M9.94,6.68c0-.75-.5-1.05-1.53-1.05h-1.05v2.21h1.03c1.07,0,1.55-.45,1.55-1.16Z"/>
  <path class="cls-1" d="M36.14,5.71h-.42v6.22h.42c1.66,0,2.78-.81,2.78-3.15s-1.12-3.07-2.78-3.07Z"/>
  <path class="cls-1" d="M0,0v16.89h63.17V0H0ZM8.77,13.7h-3.62V3.93h3.35c2.03,0,3.61.56,3.61,2.42,0,.88-.49,1.81-1.29,2.11v.06c1,.26,1.77,1,1.77,2.3,0,1.99-1.68,2.88-3.81,2.88ZM16.94,13.88c-1.27,0-2.62-.48-3.62-1.41l1.27-1.52c.7.61,1.6,1.02,2.4,1.02.92,0,1.37-.36,1.37-.94,0-.62-.56-.81-1.41-1.16l-1.27-.54c-1.01-.41-1.97-1.24-1.97-2.66,0-1.62,1.45-2.91,3.48-2.91,1.13,0,2.3.44,3.14,1.28l-1.12,1.39c-.64-.49-1.26-.77-2.03-.77s-1.25.32-1.25.88c0,.6.64.82,1.49,1.16l1.25.5c1.19.48,1.94,1.28,1.94,2.66,0,1.62-1.35,3.03-3.68,3.03ZM28.57,13.7h-6.28V3.93h6.13v1.85h-3.92v1.96h3.33v1.85h-3.33v2.25h4.07v1.85ZM36.4,13.7h-2.89V3.93h2.76c2.99,0,4.91,1.49,4.91,4.85s-1.92,4.93-4.79,4.93ZM49.31,13.7h-6.28V3.93h6.13v1.85h-3.92v1.96h3.33v1.85h-3.33v2.25h4.07v1.85ZM54.88,13.7h-3.62V3.93h3.35c2.03,0,3.61.56,3.61,2.42,0,.88-.49,1.81-1.29,2.11v.06c1,.26,1.77,1,1.77,2.3,0,1.99-1.68,2.88-3.81,2.88Z"/>
  <path class="cls-1" d="M56.05,6.68c0-.75-.5-1.05-1.53-1.05h-1.05v2.21h1.03c1.07,0,1.55-.45,1.55-1.16Z"/>
  <path class="cls-1" d="M54.7,9.47h-1.23v2.52h1.23c1.2,0,1.83-.43,1.83-1.32s-.61-1.21-1.83-1.21Z"/>
</svg>