<?xml version="1.0" encoding="UTF-8"?>
<svg id="Livello_1" xmlns="http://www.w3.org/2000/svg" version="1.1" xmlns:x="http://ns.adobe.com/Extensibility/1.0/" viewBox="0 0 1078 1078">
  <!-- Generator: Adobe Illustrator 30.1.0, SVG Export Plug-In . SVG Version: 2.1.1 Build 136)  -->
  <defs>
    <style>
      .st0 {
        fill: #fff;
      }
    </style>
  </defs>
  <path class="st0" d="M0,0v1078h1078V0H0ZM423.2,417.2c-19.3-3.6-39.7-6-58.4-6-85.4,0-139,52.3-139,136s53.5,136,139,136,39.1-2.4,58.4-6v92c-22.3,3.6-45.1,5.4-65,5.4-140.2,0-235.8-92-235.8-227.4s95.7-227.4,235.8-227.4,42.7,1.8,65,5.4v92ZM794.4,768.5h-84.2l-.6-28.9c-21.7,22.9-56.6,34.9-92,34.9-86,0-158.8-67.4-158.8-165.4s72.8-165.4,158.8-165.4,70.4,12,92,34.9l.6-28.9h84.2v318.9ZM955.6,768.5h-95.1v-318.9h95.1v318.9ZM955.6,400.9h-95.1v-97.5h95.1v97.5Z"/>
  <path class="st0" d="M630.1,530.3c-43.9,0-76.4,30.7-76.4,78.8s32.5,78.8,76.4,78.8,75.2-30.7,75.2-78.8-31.9-78.8-75.2-78.8Z"/>
</svg>