<?xml version="1.0" encoding="UTF-8"?>
<svg id="svg20" xmlns="http://www.w3.org/2000/svg" version="1.1" xmlns:cc="http://creativecommons.org/ns#" xmlns:dc="http://purl.org/dc/elements/1.1/" xmlns:inkscape="http://www.inkscape.org/namespaces/inkscape" xmlns:rdf="http://www.w3.org/1999/02/22-rdf-syntax-ns#" xmlns:sodipodi="http://sodipodi.sourceforge.net/DTD/sodipodi-0.dtd" xmlns:svg="http://www.w3.org/2000/svg" viewBox="0 0 439.7 77.3">
  <!-- Generator: Adobe Illustrator 30.1.0, SVG Export Plug-In . SVG Version: 2.1.1 Build 136)  -->
  <defs>
    <style>
      .st0 {
        fill: #fff;
      }
    </style>
  </defs>
  <g id="svg_1">
    <path class="st0" d="M302.3,0v77.3h137.4V0h-137.4ZM397.1,59.7h-52V17.8h14v35.3h38v6.6Z"/>
    <g id="svg_2">
      <path class="st0" d="M151.2,0v77.3h137.3V0h-137.3ZM248.6,24.5h-22.3v35.3h-13.1V24.5h-22.4v-6.6h57.7v6.6Z"/>
      <path class="st0" d="M0,0v77.3h137.4V0H0ZM56.1,49.2c3.4,2.5,8.2,3.8,14.3,3.8s8.1-.7,11.1-2.2c3-1.5,4.8-3.4,5.6-5.9h11.6c-.5,2.9-2,5.4-4.6,7.7-2.6,2.2-5.9,3.9-10,5.1-4.1,1.2-8.7,1.8-13.8,1.8s-11.7-.9-16.4-2.6c-4.7-1.7-8.3-4.1-10.9-7.3-2.6-3.1-3.8-6.8-3.8-10.9s1.3-7.9,3.8-11c2.6-3.2,6.2-5.6,10.9-7.3,4.7-1.7,10.2-2.6,16.4-2.6s9.8.6,13.9,1.9c4.2,1.3,7.5,3,10,5.3,2.5,2.3,4,4.9,4.4,7.8h-11.7c-.4-2.6-2.2-4.6-5.2-6.2-3-1.6-6.8-2.3-11.4-2.3s-10.7,1.3-14.2,3.9c-3.5,2.6-5.3,6.1-5.3,10.5s1.7,8,5.2,10.5Z"/>
    </g>
  </g>
</svg>