<?xml version="1.0" encoding="UTF-8"?>
<svg id="Ebene_1" xmlns="http://www.w3.org/2000/svg" version="1.1" xmlns:serif="http://www.serif.com/" viewBox="0 0 2000 2000">
  <!-- Generator: Adobe Illustrator 30.1.0, SVG Export Plug-In . SVG Version: 2.1.1 Build 136)  -->
  <defs>
    <style>
      .st0, .st1 {
        fill: #fff;
      }

      .st1 {
        fill-rule: evenodd;
      }

      .st2 {
        display: none;
      }
    </style>
  </defs>
  <g class="st2">
    <path class="st1" d="M1871.1,1152.3l-70.4-93.5h1.5c98.5,0,178.3-79.4,178.3-177.7,0-98.3-79.8-178.2-178.3-178.3h-177.7c-70.3,0-149.5,35.7-183.9,136.5l-95.7,287.1c-15.9,40.2-39.9,51.8-62.3,51.8h-30.1c-19.9,0-36.7-8.3-47.9-23h0s-72.5-96.4-72.5-96.4h1.5c98.5,0,178.3-79.4,178.3-177.7,0-98.3-79.8-178.2-178.3-178.3h-177.6c-70.3,0-149.5,35.7-183.9,136.5l-95.8,287.1c-15.9,40.2-39.9,51.8-62.3,51.8H197.8c-33.3,0-60.3-26.2-60.4-59.4,0-6.6,1-12.4,2.9-18.2l75.5-227.1c8.8-27.2,30.4-50.6,62.8-51.8h186.6c33.4,0,59.4,26.1,59.4,59.4,0,33.3-26.1,59.4-59.4,59.4h-148.5l-39.2,118.8h187.8c98.5,0,178.2-80,178.3-178.3,0-98.3-79.7-178.2-178.3-178.3h-178.3c-70.3,0-149.5,35.7-183.9,136.5l-74.8,224.7c-5.7,17.7-8.7,35.9-8.7,54.8,0,97.7,80.6,177.3,178.3,178.3.2,0,.2,0,.2,0h416.2c65.1,0,140.6-35.5,175.1-136.3l95.8-287.3c8.8-27.2,30.3-50.6,62.8-51.8h185.9c33.3,0,59.3,26.1,59.4,59.4-.1,33.3-26.1,59.4-59.4,59.4h-118.8c-22.4,0-43.3,13.1-53.3,33.1-10,20-7.8,43.7,5.6,61.6l142.8,190.1c.1.2.3.4.5.6,32.3,43.1,84,71.2,142.2,71.2h30.1c65.1,0,140.5-35.5,175-136.3l95.8-287.3c8.8-27.2,30.3-50.6,62.8-51.8h185.9c33.3,0,59.3,26.1,59.4,59.4-.1,33.3-26.1,59.4-59.4,59.4h-118.8c-22.4,0-43.3,13.1-53.3,33.1-10,20-7.8,43.7,5.6,61.6,0,0,141.6,188.8,141.7,189,34,46.2,69.1,66.3,114.5,72.8l36.8-113.7c-21.7-4.1-44.2-13.9-57.7-31.1Z"/>
  </g>
  <g>
    <path class="st1" d="M1420.5,1182.2c-16.5-.6-127.2-3.9-137.9-3.9h-30.1c-19.9,0-36.7-8.3-47.9-23h0s-72.5-96.4-72.5-96.4h1.5c98.5,0,178.3-79.4,178.3-177.7,0-98.3-79.8-178.2-178.3-178.3h-177.6c-70.3,0-149.5,35.7-183.9,136.5l-95.8,287.1c-15.9,40.2-39.9,51.8-62.3,51.8H197.8c-33.3,0-60.3-26.2-60.4-59.4,0-6.6,1-12.4,2.9-18.2l75.5-227.1c8.8-27.2,30.4-50.6,62.8-51.8h186.6c33.4,0,59.4,26.1,59.4,59.4,0,33.3-26.1,59.4-59.4,59.4h-148.5l-39.2,118.8h187.8c98.5,0,178.2-80,178.3-178.3,0-98.3-79.7-178.2-178.3-178.3h-178.3c-70.3,0-149.5,35.7-183.9,136.5l-74.8,224.7c-5.7,17.7-8.7,35.9-8.7,54.8,0,97.7,80.6,177.3,178.3,178.3.2,0,.2,0,.2,0h416.2c65.1,0,140.6-35.5,175.1-136.3l95.8-287.3c8.8-27.2,30.3-50.6,62.8-51.8h185.9c33.3,0,59.3,26.1,59.4,59.4-.1,33.3-26.1,59.4-59.4,59.4h-118.8c-22.4,0-43.3,13.1-53.3,33.1-10,20-7.8,43.7,5.6,61.6l142.8,190.1c.1.2.3.4.5.6,32.3,43.1,84,71.2,142.2,71.2h30.1c6.8,0,103.8.8,110.7,0,50.9-5.9,14.5-35.4,48.5-99.5"/>
    <path class="st0" d="M1940.8,1131.5c-8.3,105.3-76.2,161.1-147.2,165.6h-400.2s27.1-114.9,27.1-114.9h368.6c12.7-1.3,23-2.8,34.2-9.5,16.1-9.6,25.4-37.7,15.3-59.2-6.4-13.7-18.9-21-30.5-23.4l-112.2-24-160.3-31.1c-34.5-6.7-72.9-19.9-93.3-61.9-9.2-19-13.4-41.9-12.4-65.5,1.4-30.6,6.6-60.5,16.9-87.7,27.8-73.6,91.6-116.6,149.8-116.7l384-.5c-6.6,33.9-19.9,65-39.9,86.8-18.9,20.6-41.4,26.8-65.5,27.3l-268.9,6.1c-18.7.4-36.3,3.4-52.7,13.9-16.3,10.5-26.1,35-19.8,58.9,6,23,39.6,29.1,56.3,32.3l210.4,40.4c40.4,7.8,84.1,22,114.4,60.9,20.7,26.6,29.3,63.9,26.3,102.2Z"/>
  </g>
</svg>