<?xml version="1.0" encoding="UTF-8"?>
<svg id="Ebene_1" xmlns="http://www.w3.org/2000/svg" version="1.1" xmlns:serif="http://www.serif.com/" viewBox="0 0 2000 2000">
  <!-- Generator: Adobe Illustrator 30.1.0, SVG Export Plug-In . SVG Version: 2.1.1 Build 136)  -->
  <defs>
    <style>
      .st0 {
        font-family: MyriadPro-Bold, 'Myriad Pro';
        font-size: 500px;
        font-weight: 700;
      }

      .st0, .st1, .st2, .st3, .st4 {
        display: none;
      }

      .st5, .st6, .st2, .st4 {
        fill: #fff;
      }

      .st6, .st1, .st4 {
        fill-rule: evenodd;
      }
    </style>
  </defs>
  <path id="path2" class="st4" d="M1042.4,1074.9c136.6-37.3,187.4-164.2,187.4-264.8,0-174.4-118.4-291.6-294.7-291.6h-359.9v176.7h332.9c73.8,0,123.4,46.8,123.4,114.9s-49.6,113.9-123.4,113.9h-246.8v176.5h183.3l169.3,316.6h223.4l-194.9-342.2Z"/>
  <path class="st2" d="M676.4,754.3h187.8s53,93.5,53,93.5c53.3,94.7,106.7,206.6,146.7,308h4c-13.3-118.7-17.3-240-17.3-374.6v-262.6h186.7v898.6h-213.3l-192-346.6c-53.1-95.7-111.6-211.2-155.5-316.2"/>
  <path id="path21" data-name="path2" class="st1" d="M1042.4,1074.9c136.6-37.3,187.4-164.2,187.4-264.8,0-174.4-118.4-291.6-294.7-291.6h-359.9v176.7h332.9c73.8,0,123.4,46.8,123.4,114.9s-49.6,113.9-123.4,113.9h-246.8v176.5h183.3l169.3,316.6h223.4l-194.9-342.2Z"/>
  <rect class="st3" x="666.5" y="754.3" width="50.2" height="53.8"/>
  <path class="st2" d="M550,518.5"/>
  <text class="st0" transform="translate(-2154.6 830.9)"><tspan x="0" y="0">N</tspan></text>
  <path id="path4" class="st4" d="M1327.3,518.5v176.4h233.7v721.9h194.5v-721.9h233.6v-176.4h-661.8Z"/>
  <rect class="st2" x="550" y="518.5" width="150.5" height="449.3"/>
  <g>
    <path id="path6" class="st6" d="M237.1,1272.6v-721.9H42.7v898.2h575v-176.4H237.1Z"/>
    <path class="st5" d="M1399,1233.1c53,27.1,134.4,54.3,218.4,54.3s138.3-37.5,138.3-94.3-41.4-85.3-146-122.8c-144.7-50.4-239.1-130.5-239.1-257.2s124.1-262.4,329.6-262.4,170.6,20.7,222.3,43.9l-43.9,159c-34.9-16.8-96.9-41.4-182.2-41.4s-126.7,38.8-126.7,84,49.1,80.1,161.6,122.8c153.8,56.9,226.2,137,226.2,259.8s-112.4,270.1-351.5,270.1-197.7-25.8-246.8-53l40.1-162.8Z"/>
    <g>
      <polygon class="st5" points="1106.6 1188 774.7 550.7 592.7 550.7 1066.6 1449.3 1279.9 1449.3 1279.9 550.7 1093.3 550.7 1106.6 1188"/>
      <rect class="st5" x="565.2" y="550.7" width="178" height="627.3"/>
    </g>
  </g>
</svg>