<?xml version="1.0" encoding="UTF-8"?>
<svg id="Ebene_1" xmlns="http://www.w3.org/2000/svg" version="1.1" xmlns:serif="http://www.serif.com/" viewBox="0 0 2000 2000">
  <!-- Generator: Adobe Illustrator 30.1.0, SVG Export Plug-In . SVG Version: 2.1.1 Build 136)  -->
  <defs>
    <style>
      .st0, .st1, .st2 {
        fill: #fff;
      }

      .st1, .st2 {
        fill-rule: evenodd;
      }

      .st2 {
        display: none;
      }
    </style>
  </defs>
  <g>
    <g>
      <rect class="st0" x="722.6" y="220.6" width="77.9" height="618.7"/>
      <rect class="st0" x="722.6" y="1497.1" width="77.9" height="281"/>
      <path class="st0" d="M583.1,839.4h139.5v657.7h-154.9l-212.9-383.5v383.5h-139.5v-657.8h145.6s222.3,409.7,222.3,409.7v-409.7Z"/>
      <path class="st1" d="M1033.2,839.3c158.1,0,235.2,72.9,245.7,229.2v197.9c-12,167.3-87.6,230.6-245.7,230.6h-232.7v-657.7h232.7ZM1019.5,963.8h-69.8s0,409.3,0,409.3h69.8c69.2,0,117.7-28.9,117.7-120.8v-169.2c0-87.3-44.2-119.4-117.7-119.4"/>
    </g>
    <path class="st0" d="M1375.8,1339c38.8,19.9,98.4,39.8,160,39.8s101.3-27.4,101.3-69.1-30.3-62.5-107-89.9c-106-36.9-175.1-95.6-175.1-188.4s90.9-192.1,241.4-192.1,124.9,15.1,162.8,32.2l-32.2,116.4c-25.6-12.3-71-30.3-133.5-30.3s-92.8,28.4-92.8,61.5,36,58.7,118.3,89.9c112.6,41.6,165.6,100.3,165.6,190.2s-82.3,197.8-257.4,197.8-144.8-18.9-180.8-38.8l29.3-119.3Z"/>
  </g>
  <path class="st2" d="M1834.3,773.4c90.8,0,164.5,73.6,164.5,164.5s-73.6,164.5-164.5,164.5-164.5-73.6-164.5-164.5,73.6-164.5,164.5-164.5M1900.3,1004.5v-164.7l-165.6,59.4v40.9l54.8-19.8v123.8l110.7-39.6ZM1834.3,797.5c-77.5,0-140.4,62.8-140.4,140.3s62.9,140.4,140.4,140.4,140.4-62.8,140.4-140.4-62.8-140.3-140.4-140.3"/>
</svg>