<?xml version="1.0" encoding="UTF-8"?>
<svg id="Ebene_1" xmlns="http://www.w3.org/2000/svg" version="1.1" xmlns:serif="http://www.serif.com/" viewBox="0 0 552.7 240">
  <!-- Generator: Adobe Illustrator 30.1.0, SVG Export Plug-In . SVG Version: 2.1.1 Build 136)  -->
  <defs>
    <style>
      .st0, .st1 {
        fill: #fff;
      }

      .st1 {
        display: none;
        fill-rule: evenodd;
      }
    </style>
  </defs>
  <path class="st1" d="M552.7,240H1.1V0h551.6v240ZM184,120c0-39.2-31-69.4-69.7-69.4s-69.7,30.2-69.7,69.4,31,69.4,69.7,69.4,69.7-30.2,69.7-69.4ZM151,120c0,21.1-17.7,37.9-36.6,37.9s-36.6-16.8-36.6-37.9,17.5-37.9,36.6-37.9,36.6,16.8,36.6,37.9ZM398.8,186.8h32v-45h60.5v-31.5h-60.6v-25.7h74.3v-31.5h-106.3v133.7h0ZM230.2,186.9h32.1v-39h23.9l25.2,39h40l-32.3-46.8c15.2-6.8,25.8-21.5,25.8-39.6,0-26.6-19.1-47.3-48.3-47.3h-66.4v133.7h0ZM294.8,116.4h-32.5v-31.7h32.5c13.9,0,18.1,7,18.1,15.8s-4.2,16-18.1,16h0Z"/>
  <g>
    <path class="st0" d="M126.1,80.3c-11.8,0-21.1,3.8-28,11.4s-10.4,18-10.4,31.2,3.5,23.4,10.4,31.1c6.9,7.7,16.3,11.5,28,11.5s20.9-3.8,27.9-11.5,10.5-18.1,10.5-31.1-3.5-23.4-10.4-31.1-16.3-11.6-28-11.6h0Z"/>
    <path class="st0" d="M.6,0v240h551.6V0H.6ZM191.1,162.2c-6.7,11.6-15.7,20.7-27.1,27.2-11.4,6.5-24,9.8-37.9,9.8s-26.5-3.3-37.9-9.8-20.4-15.6-27.1-27.2c-6.7-11.6-10-24.7-10-39.3s3.3-27.6,10-39.2c6.6-11.6,15.7-20.6,27.1-27.1s24-9.8,37.9-9.8,26.7,3.3,38.1,9.8c11.4,6.5,20.4,15.5,27,27.1,6.6,11.5,9.9,24.6,9.9,39.2s-3.3,27.7-10,39.3h0ZM351.4,177.5c-4,6.6-9.9,11.8-17.6,15.8-7.8,3.9-17.2,5.9-28.2,5.9-16.7,0-30.4-4.1-41.2-12.2-10.8-8.1-16.7-19.5-17.6-34h38.2c.6,5.6,2.6,10,6,13.2s7.8,4.8,13.1,4.8,8.3-1.3,10.9-3.8c2.7-2.5,4-5.9,4-10.1s-1.2-6.9-3.7-9.5c-2.5-2.5-5.5-4.6-9.1-6.2-3.6-1.6-8.7-3.5-15.1-5.8-9.4-3.2-17-6.3-23-9.3s-11.1-7.5-15.3-13.4c-4.3-5.9-6.4-13.7-6.4-23.2s2.2-16.4,6.7-22.9c4.5-6.4,10.7-11.4,18.6-14.8,7.9-3.4,17-5.1,27.2-5.1,16.5,0,29.6,3.9,39.4,11.8,9.7,7.8,15.2,18.6,16.5,32.3h-38.8c-.7-4.9-2.5-8.8-5.4-11.7-2.9-2.9-6.8-4.3-11.7-4.3s-7.6,1.1-10.2,3.4c-2.6,2.2-3.9,5.5-3.9,9.9s1.2,6.5,3.5,8.9c2.3,2.5,5.2,4.4,8.7,6,3.5,1.5,8.5,3.5,15.1,5.9,9.5,3.2,17.3,6.4,23.3,9.6s11.2,7.7,15.5,13.8c4.3,6,6.5,13.9,6.5,23.5s-2,15.1-6,21.6h0ZM503.5,77.8h-60.9v32.6h47v27.3h-47v60.1h-35.9V49.2h96.8v28.6Z"/>
  </g>
</svg>