<?xml version="1.0" encoding="UTF-8"?>
<svg id="Ebene_1" data-name="Ebene 1" xmlns="http://www.w3.org/2000/svg" viewBox="0 0 999.8 554.26">
  <defs>
    <style>
      .cls-1 {
        fill: #fff;
      }
    </style>
  </defs>
  <path class="cls-1" d="M379.68,252.23c0,108.75-75.34,179.51-177.55,179.51-44.55,0-83.86-15.07-112.03-47.17v169.68H8.21V77.31h77.96v45.86c27.52-33.41,68.14-49.79,115.96-49.79,102.2,0,177.55,70.76,177.55,178.86ZM296.48,252.23c0-66.83-44.55-109.41-103.51-109.41s-104.17,42.58-104.17,109.41,45.21,109.41,104.17,109.41,103.51-42.58,103.51-109.41Z"/>
  <path class="cls-1" d="M417.68,392.43l31.45-62.24c30.79,20.31,77.96,34.72,121.86,34.72,51.76,0,73.38-14.41,73.38-38.65,0-66.83-216.2-3.93-216.2-143.48,0-66.17,59.62-109.41,153.96-109.41,46.52,0,99.58,11.14,131.03,30.14l-31.45,62.24c-33.41-19.65-66.83-26.21-100.24-26.21-49.79,0-73.38,16.38-73.38,39.31,0,70.76,216.2,7.86,216.2,144.79,0,65.52-60.27,108.1-158.55,108.1-58.31,0-116.62-17.03-148.06-39.31Z"/>
  <path class="cls-1" d="M991.59,408.16c-19.65,15.72-49.14,23.59-78.62,23.59-76.65,0-120.55-40.62-120.55-117.93V0h81.89v79.93h93.69v65.52h-93.69v166.41c0,34.07,17.69,52.41,48.48,52.41,17.03,0,33.41-4.59,45.86-14.41l22.93,58.31Z"/>
</svg>