<?xml version="1.0" encoding="UTF-8"?>
<svg id="Ebene_1" xmlns="http://www.w3.org/2000/svg" version="1.1" xmlns:serif="http://www.serif.com/" viewBox="0 0 2000 2000">
  <!-- Generator: Adobe Illustrator 30.1.0, SVG Export Plug-In . SVG Version: 2.1.1 Build 136)  -->
  <defs>
    <style>
      .st0 {
        fill: #fff;
      }

      .st1 {
        display: none;
      }
    </style>
  </defs>
  <g id="path806" class="st1">
    <path class="st0" d="M162.5,437.2H0v1125.3h162.5V437.2ZM1999.1,936.8c0-206.4-167.9-374.6-374.6-374.6h-181.5v162.5h181.5c116.8,0,211.8,95,211.8,212.1s-95,213.9-211.8,213.9h-181.5v162.5h181.5c206.7.3,374.6-168.8,374.6-376.4M1225.1,1226.6l-296.8-296.8,282.6-282.6-117.1-117.4-399.7,399.7,413.9,413.9,117.1-116.8ZM619.7,1313.2h-162.5v-751h162.5v751Z"/>
  </g>
  <g>
    <path class="st0" d="M.5,1442.5v-892.5h374.8c56.5,0,117.5,4.5,160.6,10.4,55,8.9,105.6,26.8,148.7,58,40.2,28.3,69.9,65.4,89.2,113,13.4,34.2,20.8,89.2,20.8,165.1v545.9H.5ZM588,935.3c0-41.6,0-75.9-8.9-110.1-7.4-25.3-20.8-47.6-41.6-64-20.8-16.4-50.6-26.8-77.3-32.7-28.3-6-61-7.4-99.7-7.4h-153.2v550.3h380.8v-336.2Z"/>
    <path class="st0" d="M1242.7,1187.9c27.9,33.7,64.4,56.8,105.3,71.1,40,13.3,91.4,21.3,138.4,21.3s98.4-8,138.4-21.3c40.9-14.2,77.5-37.3,105.3-71.1,27-32.9,45.3-72.8,54-118.1,6.1-33.7,8.7-67.5,8.7-109.2v-410.5h206.8v364.4c0,69.9-4.4,126.4-14.6,183-14.6,75.9-45.2,142.8-90.4,197.8-46.7,56.5-107.9,95.2-176.4,119-67.1,22.3-153.1,35.7-231.8,35.7s-164.7-13.4-231.8-35.7c-68.5-23.8-129.7-62.5-176.4-119-45.2-55-75.8-122-90.4-197.8-10.2-56.5-14.6-113-14.6-183v-364.4h206.8v410.5h46.1c23.8,0,55-3,74.4-8.9,19.3-6,34.2-16.4,47.6-32.7,13.4-16.4,23.8-35.7,28.3-59.5,4.5-17.9,6-38.7,6-62.5v-246.9h206.8v263.3c0,38.7-2.2,69.9-7.5,101.2-7.5,41.9-23.2,79-46.4,109.4-23.9,31.3-55.4,52.6-90.5,65.8-34.4,12.3-78.6,19.7-119,19.7s-84.5-7.4-119-19.7c-5.1-1.9-10.1-4-15.1-6.3,9.6,39.5,26.9,75.1,51,104.5Z"/>
  </g>
</svg>