<?xml version="1.0" encoding="UTF-8"?>
<svg id="Ebene_1" xmlns="http://www.w3.org/2000/svg" version="1.1" xmlns:cc="http://creativecommons.org/ns#" xmlns:dc="http://purl.org/dc/elements/1.1/" xmlns:inkscape="http://www.inkscape.org/namespaces/inkscape" xmlns:rdf="http://www.w3.org/1999/02/22-rdf-syntax-ns#" xmlns:sodipodi="http://sodipodi.sourceforge.net/DTD/sodipodi-0.dtd" xmlns:svg="http://www.w3.org/2000/svg" viewBox="0 0 1000 1000">
  <!-- Generator: Adobe Illustrator 30.1.0, SVG Export Plug-In . SVG Version: 2.1.1 Build 136)  -->
  <defs>
    <style>
      .st0 {
        fill: #eb0032;
      }

      .st1 {
        fill: #fff;
      }

      .st2 {
        display: none;
      }
    </style>
  </defs>
  <rect class="st1" x="-46.1" y="-29.5" width="1097" height="1126.1"/>
  <g id="svg2" inkscape:version="0.48.5 r10040">
    <sodipodi:namedview id="base" bordercolor="#666666" borderopacity="1.0" fit-margin-bottom="0" fit-margin-left="0" fit-margin-right="0" fit-margin-top="0" inkscape:current-layer="layer1" inkscape:cx="714.9694" inkscape:cy="253.91108" inkscape:document-units="px" inkscape:pageopacity="0.0" inkscape:pageshadow="2" inkscape:window-height="1032" inkscape:window-maximized="0" inkscape:window-width="1022" inkscape:window-x="889" inkscape:window-y="-15" inkscape:zoom="0.4036171" pagecolor="#ffffff" showgrid="false">
      <inkscape:grid id="grid4316" empspacing="5" enabled="true" originx="-384.11259px" originy="-309.39494px" snapvisiblegridlinesonly="true" type="xygrid" visible="true"/>
    </sodipodi:namedview>
    <g id="g4383" class="st2">
      <g id="text4318">
        <path id="path4323" d="M454,691.5v-53.7l132.7-139.9c14.8-16.5,24.6-30.6,29.6-42.1,5-11.6,7.5-22.2,7.5-31.9s-1.3-12.8-3.8-18.8c-2.6-6.1-6-11.4-10.3-16.2s-9.4-8.5-15.3-11.3c-5.9-2.8-12.4-4.2-19.6-4.2-12.6,0-23.4,3.9-32.1,11.8-8.7,7.9-16.3,21-16.3,44.5h-72.8c0-33,12.8-58.6,20.5-69.4s16.8-20,27.3-27.5c10.4-7.6,22-13.5,34.5-17.8,12.5-4.4,25.8-6.5,39.9-6.5s31.5,2.9,46.1,8.6c14.6,5.7,27.4,13.7,38.6,24s20,22.6,26.5,37c6.5,14.4,9.8,30,9.8,46.9s-4.9,43.2-14.9,60.7c-9.9,17.5-21.2,33.4-33.8,47.8l-90.2,93.3h146.8v64.8h-250.7Z" inkscape:connector-curvature="0" sodipodi:nodetypes="ccccccccccccccccccccsccccc"/>
      </g>
      <path id="path4325" d="M408.9,560.4c0,40.3-32.7,73-73,73s-72.9-32.7-72.9-73,32.7-73,73-73,73,32.7,73,73" sodipodi:cx="436.63754" sodipodi:cy="751.52789" sodipodi:end="6.2831852" sodipodi:open="true" sodipodi:rx="6.8521008" sodipodi:ry="6.8521008" sodipodi:start="0" sodipodi:type="arc"/>
    </g>
    <g id="g43831">
      <path id="path43231" d="M454,691.5v-53.7l132.7-139.9c14.8-16.5,24.6-30.6,29.6-42.1,5-11.6,7.5-22.2,7.5-31.9s-1.3-12.8-3.8-18.8c-2.6-6.1-6-11.4-10.3-16.2s-9.4-8.5-15.3-11.3c-5.9-2.8-12.4-4.2-19.6-4.2-12.6,0-23.4,3.9-32.1,11.8-8.7,7.9-16.3,21-16.3,44.5h-72.8c0-33,12.8-58.6,20.5-69.4s16.8-20,27.3-27.5c10.4-7.6,22-13.5,34.5-17.8,12.5-4.4,25.8-6.5,39.9-6.5s31.5,2.9,46.1,8.6c14.6,5.7,27.4,13.7,38.6,24s20,22.6,26.5,37c6.5,14.4,9.8,30,9.8,46.9s-4.9,43.2-14.9,60.7c-9.9,17.5-21.2,33.4-33.8,47.8l-90.2,93.3h146.8v64.8h-250.7Z" inkscape:connector-curvature="0" sodipodi:nodetypes="ccccccccccccccccccccsccccc"/>
      <rect class="st0" x="263" y="487.5" width="145.9" height="145.9"/>
    </g>
  </g>
</svg>