<?xml version="1.0" encoding="UTF-8"?>
<svg id="a" data-name="Ebene 1" xmlns="http://www.w3.org/2000/svg" width="416" height="161" viewBox="0 0 416 161">
  <defs>
    <style>
      .b {
        fill: #fff;
      }

      .c {
        fill: #f10d59;
      }
    </style>
  </defs>
  <path class="b" d="M80.8333,51.3911c0,8.0387,5.1876,13.2524,13.1861,13.2524s13.1866-5.2137,13.1866-13.2524V8.81372c0-.76273.32401-1.08388,1.078-1.08388h15.128c.759,0,1.079.32617,1.079,1.08388v42.79308c0,17.2718-12.213,28.8934-30.3667,28.8934s-30.5863-11.6216-30.5863-28.8934v-28.0202h-17.2903c-6.2661,0-10.5899,3.5828-10.5899,8.9069s4.6484,9.9907,10.6997,9.9907c.7589,0,1.7275-.1104,3.1355-.3262.754-.1053,1.0785.1104,1.0785.8681v11.2955c0,.7627-.3245,1.1942-1.0785,1.3046-1.5128.3262-3.46.542-5.1876.542-14.5891,0-24.8545-10.1012-24.8545-24.4375S29.5016,7.72984,43.87609,7.72984h35.8787c.7539,0,1.0785.32617,1.0785,1.08388v42.57738Z"/>
  <path class="b" d="M130.731,26.5238c0-.7536.321-1.0781,1.071-1.0781h13.35399c.75,0,1.071.3245,1.175,1.0781l.21201,4.8614c4.698-4.8614,10.147-7.0225,16.769-7.0225,13.45799,0,22.539,8.9691,22.539,22.1458v31.8686c0,.7587-.321,1.0831-1.06599,1.0831h-13.88701c-.75,0-1.06599-.3244-1.06599-1.0831v-27.6561c0-6.9127-4.38301-11.2351-11.642-11.2351-7.26001,0-11.43001,4.3224-11.43001,11.2351v27.6561c0,.7587-.321,1.0831-1.06599,1.0831h-13.88701c-.75,0-1.071-.3244-1.071-1.0831V26.5188l-.00499.005Z"/>
  <path class="b" d="M199.89099.4525c5.38101,0,9.88,4.32988,9.88,9.95973s-4.49899,9.52477-9.88,9.52477c-5.38199,0-9.87999-4.0049-9.87999-9.52477S194.403.4525,199.89099.4525ZM191.659,26.4268c0-.755.33-1.08,1.101-1.08h14.272c.771,0,1.101.325,1.101,1.08v51.9486c0,.76-.33,1.085-1.101,1.085h-14.272c-.771,0-1.101-.325-1.101-1.085V26.4268Z"/>
  <path class="b" d="M242.476,80.5001c-13.83101,0-20.313-6.8632-20.313-20.6903v-20.1519h-7.136c-.771,0-1.09599-.327-1.09599-1.0868v-12.5239c0-.7598.33-1.0868,1.09599-1.0868h7.136v-11.9805c0-.7648.32899-1.0919,1.10001-1.0919h14.27299c.765,0,1.095.3271,1.095,1.0919v11.9805h13.72501c.771,0,1.09499.327,1.09499,1.0868v12.5239c0,.7598-.32999,1.0868-1.09499,1.0868h-13.72501v18.6223c0,5.4443,2.08501,8.06079,7.02499,8.06079,1.755,0,4.392-.3271,6.69501-.8705.77-.11069,1.095.1107,1.095.8705v11.9804c0,.7598-.33,1.1975-1.095,1.3082-4.063.5435-7.02501.8705-9.88.8705"/>
  <path class="b" d="M310.42801,72.7296c0,.7531-.32901,1.2967-.87701,1.7256-5.48199,3.4562-14.259,6.0446-22.59399,6.0446-18.095,0-32.466-12.3037-32.466-28.0686s13.81799-28.0685,32.466-28.0685c13.05301,0,22.047,6.8026,22.047,17.0566,0,8.7427-6.582,14.3584-20.07101,16.7324-5.37598.9725-8.66498,2.4837-10.418,4.9624,2.95901,1.40141,6.68802,2.2692,10.97,2.2692,7.677,0,14.58902-2.5884,20.289-6.8027.548-.4339.87701-.3242.87701.4289l-.21802,13.7101-.00497.01ZM285.96899,48.4414c6.035-1.187,8.776-3.0223,8.776-5.8302s-2.52301-4.2093-7.34698-4.2093c-9.54202,0-16.45401,6.0447-16.45401,13.386,0,1.2967.21799,2.4837.547,3.5609,2.63501-3.2368,7.45898-5.3963,14.478-6.9074Z"/>
  <path class="b" d="M372.00598,52.2776c0,15.5202-13.26999,28.2222-29.58499,28.2222s-29.69-12.697-29.69-28.2222,11.853-28.2222,26.86102-28.2222c6.09,0,11.52698,2.061,16.099,6.2933V7.77296c0-.7572.327-1.08316,1.09-1.08316h14.13998c.763,0,1.09.32596,1.09,1.08316v44.49964l-.005.005ZM356.23401,52.3879c0-7.2712-6.09003-13.1332-13.48602-13.1332s-13.702,5.862-13.702,13.1332,6.09,12.9176,13.702,12.9176,13.48602-5.862,13.48602-12.9176Z"/>
  <path class="c" d="M18.0922,94.4696c4.5678-4.1727,10.0048-6.2047,16.0951-6.2047,15.0097,0,26.8637,12.3056,26.8637,27.8246s-13.3766,27.825-29.6928,27.825S1.771,131.39149,1.771,116.0895v-43.8777c0-.7515.32662-1.0679,1.0854-1.0679h14.1404c.7638,0,1.0904.3214,1.0904,1.0679v22.2578h.005ZM44.7398,116.1935c0-7.169-6.0903-12.948-13.7032-12.948s-13.4871,5.779-13.4871,12.948,6.0903,12.73601,13.4871,12.73601,13.7032-5.78001,13.7032-12.73601Z"/>
  <path class="c" d="M82.54449,111.2025c0,6.412,3.6911,10.218,9.7692,10.218s9.65829-3.806,9.65829-10.218v-21.3011c0-.7633.326-1.08459,1.08401-1.08459h14.112c.76199,0,1.083.32639,1.083,1.08459v45.53911c0,14.562-11.178,25.10699-26.70461,25.10699-13.4601,0-23.2293-7.39101-25.1851-18.584-.1103-.758.2157-1.08501.9779-1.08501h14.1121c.6519,0,1.0832.32701,1.4092,1.08501,1.0882,2.716,4.4533,4.459,8.7912,4.459,6.2937,0,10.3103-3.58501,10.3103-9.345v-6.086c-4.2322,3.912-9.0114,5.65399-14.9792,5.65399-12.5926,0-20.7318-7.93399-20.7318-20.11099v-26.6281c0-.76321.326-1.0846,1.0882-1.0846h14.1121c.7623,0,1.0832.3264,1.0832,1.0846v21.30109l.01-.005Z"/>
  <g>
    <path class="c" d="M151.14307,119.95934c.0708.57715.16211,1.15234.27002,1.72754.10791.57715.25146,1.11719.43164,1.62012.1792.50488.39502.97266.64844,1.4043.25146.43164.521.82812.80957,1.18848.28711.36035.62988.71973,1.02637,1.0791.39453.36133.81006.66699,1.2417.91797.43213.25391.88086.46973,1.3501.64844.46729.18066.97217.34277,1.51221.48633.54004.14453,1.11523.25293,1.72803.32324.61084.07324,1.2417.1084,1.88965.1084.50293,0,1.00781-.0166,1.51221-.05371.50293-.03613.98877-.1084,1.45801-.21582.46729-.1084.91797-.2168,1.3501-.32422.43164-.1084.82666-.25195,1.18799-.43262.35938-.17871.70166-.37793,1.02588-.59375s.61084-.43164.86377-.64746c.25146-.2168.48633-.44922.70215-.70215.21631-.25195.39502-.52148.54004-.81055.14355-.28613.25146-.5752.32422-.86328.0708-.28711.10791-.61133.10791-.97266,0-.43164-.0542-.84473-.16211-1.24219-.10791-.39453-.28857-.79102-.54004-1.1875-.25293-.39453-.54004-.79102-.86377-1.18848-.32422-.39453-.70215-.79102-1.13428-1.1875-.43213-.39453-.91797-.77344-1.45801-1.13379-.54004-.35938-1.13379-.7373-1.78174-1.13477-.64795-.39453-1.3335-.75586-2.05225-1.0791-.7207-.32422-1.51172-.66504-2.37598-1.02637-.86377-.35938-1.74658-.68359-2.646-.97168-.90088-.28711-1.85449-.57617-2.86182-.86426-1.36865-.35938-2.66455-.75586-3.88818-1.18848-1.2251-.43164-2.37598-.89941-3.45605-1.40332-1.08008-.50293-2.08887-1.02637-3.02393-1.56641-.93652-.54004-1.80029-1.11523-2.5918-1.72754-.79346-.61133-1.51221-1.25879-2.16016-1.94434-.64795-.68359-1.2251-1.4043-1.72803-2.16016-.50439-.75586-.95508-1.52832-1.3501-2.32227-.39648-.79102-.72021-1.61914-.97168-2.4834-.25342-.86426-.45068-1.76367-.59424-2.7002-.14502-.93457-.21582-1.90723-.21582-2.91602,0-1.2959.10791-2.53809.32373-3.72559.21631-1.18848.50293-2.32227.86426-3.40234.35938-1.08008.82666-2.10645,1.40381-3.07812.57568-.97168,1.24219-1.88965,1.99805-2.75391s1.56592-1.67383,2.43018-2.42969c.86377-.75684,1.81738-1.43945,2.86182-2.05273,1.04297-.61035,2.16016-1.15039,3.34814-1.62012,1.18799-.4668,2.42969-.86328,3.72607-1.1875,1.2959-.32422,2.646-.5752,4.0498-.75586,1.40381-.17871,2.86182-.27051,4.37402-.27051s2.95166.0918,4.31982.27051c1.36719.18066,2.7002.41504,3.99609.70215,1.2959.28809,2.51953.66602,3.67188,1.13379,1.15088.46875,2.24951,1.00879,3.29443,1.62012,1.04248.6123,2.01465,1.2959,2.91553,2.05176.8999.75586,1.72803,1.54883,2.48438,2.37598.75586.8291,1.4209,1.72852,1.99805,2.7002.5752.97168,1.07959,1.99805,1.51172,3.07812s.75586,2.19727.97217,3.34766c.21582,1.15234.35938,2.34082.43213,3.56445,0,.71973-.36133,1.08008-1.08008,1.08008h-14.58008c-.36133,0-.63135-.08984-.81006-.27051-.18066-.17871-.30713-.44922-.37793-.80957-.07275-.57617-.23486-1.11621-.48584-1.62012-.25342-.50293-.57715-.97266-.97217-1.4043-.39648-.43164-.84717-.80957-1.3501-1.13379-.50439-.32422-1.08008-.61133-1.72803-.86426-.64795-.25098-1.3501-.43164-2.10596-.54004-.75586-.10742-1.56592-.16211-2.43018-.16211-.43164,0-.86377.01855-1.2959.05469-.43213.03711-.84717.09082-1.2417.16113-.39697.07324-.7749.14551-1.13428.2168-.36084.07227-.68506.18066-.97168.32324-.28857.14551-.55859.28906-.81006.43262-.25342.14453-.48633.30664-.70215.48535-.21582.18066-.41504.37793-.59424.59473-.18018.21582-.32373.43164-.43164.64746-.1084.21582-.19922.43262-.27002.64844-.07275.21582-.10791.46875-.10791.75586,0,.28809.03516.57715.10791.86426.0708.28809.19727.57715.37793.86328.17871.28906.37793.57715.59375.86426.21631.28906.48633.55859.81006.81055.32422.25293.70215.50391,1.13428.75586.43164.25293.88086.50391,1.34961.75586.46777.25293.98926.50488,1.56641.75586.5752.25293,1.20459.50488,1.88965.75586.68359.25293,1.4043.50488,2.16016.75586.75586.25293,1.56592.48633,2.43018.70215,1.65527.43262,3.20264.90137,4.64404,1.4043,1.43945.50488,2.80762,1.04395,4.104,1.62012,1.2959.57715,2.48389,1.1709,3.56396,1.78125,1.08008.61328,2.0874,1.2793,3.02393,1.99805.93457.7207,1.78174,1.45801,2.53809,2.21484.75586.75586,1.43945,1.54883,2.05176,2.37598.61084.82812,1.13428,1.69238,1.56592,2.5918.43213.90137.7915,1.83594,1.08008,2.80762.28711.97266.50293,1.99805.64795,3.07812.14355,1.08008.21631,2.19727.21631,3.34766,0,1.44141-.1084,2.80859-.32422,4.10449s-.52295,2.53809-.91797,3.72559c-.39648,1.18848-.88232,2.30566-1.45801,3.34863-.57715,1.04395-1.26074,2.03516-2.05176,2.96973-.79346.93652-1.65723,1.80078-2.59229,2.5918-.93652.79297-1.94385,1.51172-3.02393,2.16016s-2.25098,1.22559-3.51025,1.72754c-1.26025.50488-2.5918.91895-3.99561,1.24219-1.4043.32422-2.8623.57617-4.37402.75586-1.51221.17969-3.09668.27051-4.75195.27051-1.65723,0-3.25879-.09082-4.80615-.27051-1.54932-.17969-3.02393-.4502-4.42822-.80957-1.40381-.35938-2.73682-.80957-3.99561-1.34961-1.26074-.54004-2.44873-1.15137-3.56396-1.83594-1.11719-.68359-2.14355-1.43945-3.07812-2.26855-.93652-.82715-1.80078-1.74512-2.59229-2.75391-.79297-1.00781-1.47656-2.08789-2.05176-3.24023-.57715-1.15039-1.08008-2.35742-1.51221-3.61816-.43164-1.25879-.75586-2.6084-.97168-4.0498-.21631-1.43945-.36133-2.91602-.43213-4.42773,0-.71875.35938-1.08008,1.08008-1.08008h14.7959c.71875,0,1.08008.36133,1.08008,1.08008Z"/>
    <path class="c" d="M190.99463,116.50328c0-1.51172.12451-3.02441.37793-4.53613.25146-1.51172.62939-2.95117,1.13379-4.32031.50293-1.36621,1.09668-2.69922,1.78223-3.99512.68311-1.29688,1.47461-2.51953,2.37598-3.67285.89941-1.15039,1.88965-2.24902,2.96973-3.29395,1.08008-1.04297,2.23096-1.99805,3.45605-2.86133,1.22363-.86426,2.51953-1.62012,3.88818-2.26855,1.3667-.64746,2.78955-1.20508,4.26611-1.67383,1.47461-.46777,2.9873-.82715,4.53613-1.08008,1.54688-.25098,3.14844-.37793,4.80566-.37793,1.65527,0,3.25684.12695,4.80664.37793,1.54688.25293,3.05859.6123,4.53516,1.08008,1.47559.46875,2.87891,1.02637,4.21289,1.67383,1.33105.64844,2.6084,1.4043,3.83398,2.26855,1.22266.86328,2.37598,1.81836,3.45508,2.86133,1.08008,1.04492,2.06934,2.14355,2.9707,3.29395.89941,1.15332,1.69043,2.37598,2.37598,3.67285.68359,1.2959,1.27734,2.62891,1.78223,3.99512.50195,1.36914.88086,2.80859,1.13379,4.32031.25098,1.51172.37793,3.02441.37793,4.53613s-.12695,3.02441-.37793,4.53613c-.25293,1.51172-.63184,2.95312-1.13379,4.32031-.50488,1.36816-1.09863,2.69922-1.78223,3.99512-.68555,1.29688-1.47656,2.52148-2.37598,3.67285-.90137,1.15234-1.89062,2.25098-2.9707,3.29395-1.0791,1.04395-2.23242,1.99805-3.45508,2.86133-1.22559.86426-2.50293,1.62012-3.83398,2.26855-1.33398.64746-2.7373,1.20605-4.21289,1.67383-1.47656.46777-2.98828.82715-4.53516,1.08008-1.5498.25098-3.15137.37793-4.80664.37793-1.65723,0-3.25879-.12695-4.80566-.37793-1.54883-.25293-3.06152-.6123-4.53613-1.08008-1.47656-.46777-2.89941-1.02637-4.26611-1.67383-1.36865-.64844-2.66455-1.4043-3.88818-2.26855-1.2251-.86328-2.37598-1.81738-3.45605-2.86133-1.08008-1.04297-2.07031-2.1416-2.96973-3.29395-.90137-1.15137-1.69287-2.37598-2.37598-3.67285-.68555-1.2959-1.2793-2.62695-1.78223-3.99512-.50439-1.36719-.88232-2.80859-1.13379-4.32031-.25342-1.51172-.37793-3.02441-.37793-4.53613ZM207.19434,116.39488c0,.7207.0542,1.42285.16211,2.10645.10791.68555.27002,1.34961.48584,1.99805.21631.64746.48633,1.2793.81006,1.88965.32422.61328.68359,1.18848,1.08008,1.72852.39502.54004.84521,1.04395,1.3501,1.51172.50293.46875,1.02637.90137,1.56641,1.2959.54004.39648,1.11523.75586,1.72754,1.08008.61133.32422,1.25879.59375,1.94434.80957.68359.2168,1.38574.37891,2.10547.48633.71973.1084,1.43945.16211,2.16016.16211.71875,0,1.43945-.05371,2.16016-.16211.71875-.10742,1.4043-.26953,2.05176-.48633.64844-.21582,1.27734-.48535,1.89062-.80957.61035-.32422,1.1875-.68359,1.72754-1.08008.54004-.39453,1.06152-.82715,1.56641-1.2959.50293-.46777.95312-.97168,1.34961-1.51172.39453-.54004.75586-1.11523,1.08008-1.72852.32422-.61035.59375-1.24219.80957-1.88965.2168-.64844.37891-1.3125.48633-1.99805.1084-.68359.16211-1.38574.16211-2.10645,0-.71875-.05371-1.4209-.16211-2.10547-.10742-.68359-.26953-1.33203-.48633-1.94434-.21582-.61035-.48535-1.22363-.80957-1.83594-.32422-.61035-.68555-1.16895-1.08008-1.67383-.39648-.50293-.84668-.98926-1.34961-1.45801-.50488-.46777-1.02637-.89941-1.56641-1.2959-.54004-.39453-1.11719-.75586-1.72754-1.08008-.61328-.32422-1.24219-.59375-1.89062-.80957-.64746-.2168-1.33301-.37891-2.05176-.48633-.7207-.1084-1.44141-.16211-2.16016-.16211-.7207,0-1.44043.05371-2.16016.16211-.71973.10742-1.42188.26953-2.10547.48633-.68555.21582-1.33301.48535-1.94434.80957-.6123.32422-1.1875.68555-1.72754,1.08008-.54004.39648-1.06348.82812-1.56641,1.2959-.50488.46875-.95508.95508-1.3501,1.45801-.39648.50488-.75586,1.06348-1.08008,1.67383-.32373.6123-.59375,1.22559-.81006,1.83594-.21582.6123-.37793,1.26074-.48584,1.94434-.10791.68457-.16211,1.38672-.16211,2.10547Z"/>
    <path class="c" d="M310.54932,121.90367c-.28809,1.2959-.64746,2.55664-1.08008,3.7793-.43164,1.22559-.95508,2.39453-1.56543,3.51074-.61328,1.11621-1.2959,2.19629-2.05273,3.23926-.75586,1.04492-1.58398,2.03516-2.4834,2.9707-.90137.93652-1.85449,1.81836-2.8623,2.64551-1.00879.8291-2.08887,1.58496-3.24023,2.26855-1.15234.68457-2.33984,1.2959-3.56348,1.83594-1.22559.54004-2.48438.99023-3.78027,1.34961s-2.62891.62988-3.99609.80957c-1.36816.17969-2.77246.27051-4.21191.27051-1.65723,0-3.25879-.12695-4.80566-.37793-1.5498-.25293-3.06152-.6123-4.53613-1.08008-1.47656-.46777-2.88086-1.02637-4.21191-1.67383-1.33301-.64844-2.61035-1.4043-3.83398-2.26855-1.22559-.86328-2.37598-1.81738-3.45605-2.86133-1.08008-1.04297-2.07031-2.1416-2.96973-3.29395-.90137-1.15137-1.69336-2.37598-2.37598-3.67285-.68555-1.2959-1.2793-2.62695-1.78223-3.99512-.50488-1.36719-.88281-2.80859-1.13379-4.32031-.25391-1.51172-.37793-3.02441-.37793-4.53613s.12402-3.02441.37793-4.53613c.25098-1.51172.62891-2.95117,1.13379-4.32031.50293-1.36621,1.09668-2.69922,1.78223-3.99512.68262-1.29688,1.47461-2.51953,2.37598-3.67285.89941-1.15039,1.88965-2.24902,2.96973-3.29395,1.08008-1.04297,2.23047-1.99805,3.45605-2.86133,1.22363-.86426,2.50098-1.62012,3.83398-2.26855,1.33105-.64746,2.73535-1.20508,4.21191-1.67383,1.47461-.46777,2.98633-.82715,4.53613-1.08008,1.54688-.25098,3.14844-.37793,4.80566-.37793,1.36719,0,2.7002.09082,3.99609.27051s2.55469.43164,3.78027.75586c1.22363.32324,2.42969.7207,3.61816,1.1875,1.1875.46973,2.32129,1.00977,3.40137,1.62012,1.08008.6123,2.12305,1.2793,3.13184,1.99805,1.00781.7207,1.94434,1.51172,2.80859,2.37598s1.69043,1.76562,2.4834,2.7002c.79199.93652,1.5127,1.92676,2.16016,2.96973.64844,1.04492,1.20508,2.125,1.67383,3.24023.46777,1.11719.88086,2.25098,1.24219,3.40234.21582.71973-.03711,1.0791-.75586,1.0791h-15.01172c-.64844,0-1.18848-.28613-1.62012-.86328-.21582-.35938-.46875-.70215-.75586-1.02637-.28906-.32422-.57715-.62891-.86426-.91797-.28809-.28711-.59375-.55664-.91797-.80957-.32422-.25195-.66699-.48633-1.02637-.70215-.36035-.21582-.73828-.43262-1.13379-.64844-.39648-.21582-.79297-.39453-1.1875-.54004-.39648-.14355-.79395-.28613-1.18848-.43164-.39648-.14355-.80957-.25195-1.24219-.32422-.43164-.07031-.86328-.125-1.2959-.16211-.43164-.03516-.86426-.05371-1.2959-.05371-.7207,0-1.44141.05371-2.16016.16211-.7207.10742-1.40332.26953-2.05176.48633-.64844.21582-1.2793.48535-1.88965.80957-.61328.32422-1.18848.68555-1.72852,1.08008-.54004.39648-1.0625.82812-1.56543,1.2959-.50488.46875-.95508.95508-1.35059,1.45801-.39648.50488-.75586,1.06348-1.08008,1.67383-.32324.6123-.59375,1.22559-.80957,1.83594-.21582.6123-.37793,1.26074-.48633,1.94434-.10742.68457-.16211,1.38672-.16211,2.10547,0,.7207.05469,1.42285.16211,2.10645.1084.68555.27051,1.34961.48633,1.99805.21582.64746.48633,1.2793.80957,1.88965.32422.61328.68359,1.18848,1.08008,1.72852.39551.54004.8457,1.04395,1.35059,1.51172.50293.46875,1.02539.90137,1.56543,1.2959.54004.39648,1.11523.75586,1.72852,1.08008.61035.32422,1.24121.59375,1.88965.80957.64844.2168,1.33105.37891,2.05176.48633.71875.1084,1.43945.16211,2.16016.16211.50293,0,1.02637-.03516,1.56641-.1084.54004-.07031,1.04297-.16113,1.51172-.26953.46777-.1084.95312-.25195,1.45801-.43164.50293-.17969.97168-.37793,1.4043-.59473.43164-.21582.86328-.4668,1.2959-.75586.43164-.28711.82715-.5752,1.1875-.86426.35938-.28613.71875-.61035,1.08008-.97168.35938-.35938.68359-.7373.97266-1.13379.28613-.39453.55664-.81055.80957-1.24219.25098-.43164.48633-.86426.70215-1.2959.35938-.64844.86426-.97168,1.51172-.97168h14.47168c.79199,0,1.08008.36035.86426,1.08008Z"/>
    <path class="c" d="M316.05713,72.22301c0-.71875.35938-1.08008,1.08008-1.08008h14.04004c.71875,0,1.08008.36133,1.08008,1.08008v21.60059c2.16016-1.79883,4.51758-3.14941,7.07422-4.05078,2.55469-.89941,5.27344-1.34961,8.1543-1.34961,1.00684,0,1.97852.05371,2.91602.16211.93457.1084,1.83594.26953,2.69922.48633.86426.21582,1.69141.48535,2.48438.80957.79102.32422,1.5293.68555,2.21387,1.08008.68359.39648,1.33105.84668,1.94434,1.34961.61035.50488,1.16895,1.04492,1.67383,1.62012.50293.57715.95312,1.18848,1.34961,1.83594.39551.64844.75586,1.33301,1.08008,2.05273s.55664,1.47656.70215,2.26758c.14355.79297.25195,1.62012.32422,2.48438,0,.64746-.01855,1.31445-.05371,1.99805-.03711.68457-.12695,1.34961-.27051,1.99805-.14551.64746-.30664,1.2959-.48633,1.94336-.17969.64844-.41504,1.2793-.70117,1.89062-.28906.6123-.61328,1.22461-.97266,1.83594-.36133.6123-.73926,1.20605-1.13379,1.78125-.39648.57715-.82812,1.13477-1.2959,1.6748-.46875.54004-.97168,1.0625-1.51172,1.56543-.54004.50488-1.08008.99023-1.62012,1.45801-.54004.46973-1.13379.91797-1.78223,1.35059l13.60742,22.46387c.35938.64746.17969.97168-.53906.97168h-16.2002c-.7207,0-1.26074-.32422-1.62012-.97168l-8.85645-17.17188c-.50391.07227-.99023.10742-1.45801.10742h-2.53809c-.21582,0-.43164-.0166-.64746-.05371-.21582-.03516-.4502-.05371-.70215-.05371-.25293,0-.50488-.01758-.75586-.05469-.25293-.03516-.48633-.07031-.70215-.10742-.21582-.03613-.4502-.07129-.70215-.1084-.25293-.03516-.46875-.07129-.64746-.1084-.18066-.03516-.36133-.07031-.54004-.10742-.18066-.03516-.34277-.08984-.48633-.16211v17.71191c0,.7207-.36133,1.08008-1.08008,1.08008h-14.04004c-.7207,0-1.08008-.35938-1.08008-1.08008v-70.2002ZM332.25732,114.66734c1.00781.21582,1.97949.32422,2.91602.32422.64844,0,1.2959-.05469,1.94434-.16211.64746-.1084,1.2959-.2334,1.94336-.37793.64844-.14355,1.27734-.34082,1.89062-.59473.61035-.25098,1.20508-.53906,1.78125-.86328s1.11621-.64844,1.62012-.97266c.50293-.32324.97266-.70117,1.4043-1.13379.43164-.43164.82715-.86426,1.18848-1.2959.35938-.43164.66406-.86426.91797-1.2959.25098-.43164.44824-.88086.59375-1.34961.14355-.46777.21582-.9541.21582-1.45801,0-1.2959-.50488-2.30371-1.51172-3.02441-1.00977-.71875-2.37598-1.08008-4.10449-1.08008-1.80078,0-3.61816.39648-5.4541,1.18848-1.83594.79297-3.61719,1.94336-5.3457,3.45605v8.63965Z"/>
    <path class="c" d="M382.90869,126.33141c.35938,0,.62891.09082.81055.26953.17773.18066.30469.45117.37695.81055.2168,1.58398.95508,2.77246,2.21484,3.56348,1.25781.79297,3.00586,1.18848,5.23828,1.18848.43164,0,.82617-.0166,1.1875-.05371.35938-.03613.70117-.07129,1.02539-.1084.32422-.03516.63086-.1084.91797-.21582.28711-.1084.57617-.19727.86523-.27051.28711-.07031.53906-.17871.75586-.32324.21484-.14355.41211-.28711.59375-.43262.17969-.14355.33984-.30566.48633-.48633.14258-.17871.26953-.37793.37695-.59375.10938-.21582.17969-.43164.2168-.64746.03516-.2168.05469-.43262.05469-.64844,0-.28711-.03711-.55664-.10938-.80957-.07227-.25195-.16211-.50293-.26953-.75586-.10742-.25195-.26953-.48633-.48633-.70215-.21484-.21582-.45117-.43262-.70117-.64844-.25391-.21582-.52344-.43164-.81055-.64746-.28906-.2168-.63086-.41406-1.02539-.59473-.39648-.17871-.83008-.37793-1.29688-.59375-.46875-.21582-.95508-.39453-1.45703-.54004-.50586-.14355-1.04492-.30566-1.62109-.48633-.57617-.17871-1.1875-.34082-1.83594-.48535-1.22461-.28711-2.39453-.61133-3.50977-.97266-1.11719-.35938-2.17773-.75586-3.18555-1.1875-1.00977-.43164-1.96289-.88086-2.86328-1.34961-.90039-.46777-1.72656-.98926-2.48242-1.56641-.75586-.5752-1.45898-1.15137-2.10742-1.72852-.64648-.5752-1.22461-1.1875-1.72656-1.83594-.50586-.64746-.95508-1.33105-1.35156-2.05176-.39648-.71875-.71875-1.45801-.9707-2.21387-.25391-.75586-.45117-1.5293-.59375-2.32227-.14648-.79102-.2168-1.62012-.2168-2.4834,0-.93555.08984-1.85352.26953-2.75391.17969-.89941.43359-1.76367.75586-2.59277.32422-.82617.71875-1.60059,1.18945-2.32129.4668-.71875,1.00586-1.4209,1.61914-2.10645.61133-.68359,1.29688-1.2959,2.05273-1.83594s1.56641-1.04297,2.42969-1.51172c.86328-.46777,1.78125-.88086,2.75391-1.24219.97266-.35938,1.97852-.66504,3.02344-.91797,1.04297-.25195,2.16016-.43164,3.34766-.54004,1.18945-.1084,2.39453-.16211,3.61914-.16211,1.22266,0,2.42969.07227,3.61719.21582,1.1875.14551,2.32227.34277,3.40234.59473,1.08008.25293,2.12305.55762,3.13281.91797,1.00586.36035,1.96094.77441,2.86133,1.24121.89844.46973,1.74414.97266,2.53711,1.5127s1.51367,1.15234,2.16016,1.83594c.64844.68457,1.22461,1.38672,1.72852,2.10547.50391.7207.95312,1.49512,1.34961,2.32227.39453.82812.70312,1.69238.91797,2.5918.2168.90137.35938,1.81934.43164,2.75391,0,.7207-.35938,1.08008-1.07812,1.08008h-13.7168c-.07227,0-.12695-.0166-.16211-.05371-.03711-.03516-.07227-.05371-.10742-.05371-.03711,0-.07227-.01758-.10938-.05469-.03711-.03516-.08984-.07031-.16211-.10742-.07227-.03613-.10742-.07129-.10742-.1084,0-.03516-.01758-.07031-.05273-.10742-.03711-.03613-.07422-.08984-.10938-.16211-.03711-.07129-.07227-.14355-.10742-.2168-.03711-.07031-.05469-.14258-.05469-.21582-.28711-1.15039-.9707-2.05176-2.05078-2.7002-1.08008-.64746-2.48438-.97168-4.21289-.97168-1.58398,0-2.80859.25293-3.67188.75586-.86328.50488-1.29688,1.18848-1.29688,2.05273,0,1.00879.7207,1.92676,2.16016,2.75391,1.43945.82812,3.63477,1.56543,6.58789,2.21387,3.3125.7207,6.21094,1.65723,8.69531,2.80762,2.48438,1.15234,4.55273,2.50293,6.20898,4.0498,1.65625,1.5498,2.89844,3.29395,3.72656,5.23828.82617,1.94434,1.24219,4.06836,1.24219,6.37207,0,1.08008-.0918,2.125-.26953,3.13184-.18164,1.00977-.45117,1.96289-.81055,2.8623-.36133.90137-.79297,1.74609-1.29688,2.53809-.50391.79297-1.08008,1.54883-1.72656,2.26758-.64844.7207-1.36914,1.3877-2.16016,1.99805-.79297.6123-1.63867,1.1709-2.53906,1.67383-.90039.50488-1.88867.93652-2.96875,1.2959-1.08008.36133-2.19727.66504-3.34961.91797-1.15234.25195-2.35742.44922-3.61719.59473-1.25977.14355-2.57422.21582-3.94141.21582-1.36914,0-2.68359-.07227-3.94336-.21582-1.25977-.14551-2.4668-.34277-3.61719-.59473-1.15234-.25293-2.25195-.55664-3.29297-.91797-1.04492-.35938-2.03516-.79102-2.9707-1.2959-.9375-.50293-1.82031-1.06152-2.64648-1.67383-.82812-.61035-1.56641-1.25879-2.21289-1.94336-.64844-.68359-1.24219-1.4209-1.7832-2.21484-.53906-.79102-1.00781-1.63672-1.4043-2.53809-.39648-.89941-.70117-1.83594-.91797-2.80762-.21484-.97168-.36133-1.96094-.43164-2.96973,0-.71875.35938-1.08008,1.08008-1.08008h13.5Z"/>
  </g>
</svg>