<?xml version="1.0" encoding="UTF-8"?>
<svg id="Ebene_1" data-name="Ebene 1" xmlns="http://www.w3.org/2000/svg" viewBox="0 0 1210.17 536.02">
  <defs>
    <style>
      .cls-1 {
        fill: #fff;
      }

      .cls-2 {
        fill: none;
      }

      .cls-3 {
        fill: #fe6f0f;
      }
    </style>
  </defs>
  <g>
    <path class="cls-3" d="M1175.79.28c18.33-2.26,33.5,9.26,34.37,24.16v487.07c-1.44,13.66-11.78,23.07-28.6,24.51H27.59c-12.67-.94-22.84-8.34-26.51-18.23C-.09,389.86-.73,261.3,1.4,133.43c3.87-9.24,12.18-15.41,23.92-17.35,14.65-2.42,33.4-3.35,48.72-4.97C440.99,72.32,808.86,39.15,1175.79.28ZM732.13,238.7c4.5,4.5,18.23,2.06,20.26,12.85-3.87,20.44,8.25,60.1-2.58,77.75-5.3,8.64-23.06,11.65-25.15,1.95-1.4-6.52,5.58-10.21-1.15-19.98-13.59-19.73-55.37-11.4-53.72,15.05,2.7,43.19,110.88,50.3,134.86,11.04,11.22-18.37,5.5-58.15,7.41-79.92.59-6.75,1.32-11.06,7.96-15.46,4.9-3.24,13.35-4.27,12.52-11.27-.71-6.04-10.2-9.96-16.53-11.45-18.26-4.3-64.6-5.41-79.79,4.87-4.68,3.17-8.39,10.27-4.1,14.56ZM983.73,279.98v55.5c0,1.2,3.29,7.86,4.23,9.52,13.01,23.15,53.07,22.18,76.47,10.78,8.76-4.27,20.53-13.66,14.48-22.51-6.48-9.48-14.79.97-23.89.64-10.38-.38-12.29-8.36-12.92-15.39-.79-8.72-1.21-26.7,0-35.09.14-1.01.55-3.45,1.89-3.45h28c1.42,0,5.92-2.24,6.46-3.69.67-1.79.6-16.19-.33-17.35-3.52-4.38-30.69-.04-34.81-2.4-3.32-1.9.86-18.97-1.73-22.57-2.17-3.02-17.21-2.75-20.92-.17l-58.46,30.46c-2.61,2.97-2.92,15.72,2.69,15.72h18.87ZM194.75,257.28c-89.92,4.92-85.65,112.77,10.58,105.68,16.09-1.19,53.04-12.53,47.52-30.02-1.01-3.2-5.21-7.35-9.7-6.98-3.59.3-15.52,7.5-22.53,8.56-11.75,1.77-25.49-.88-32.91-9.05-3.18-3.5-7.24-10.76.54-11.54,19.02-1.9,42.37,1.69,61.88-.16,13.94-5.37,9.42-21.43,3.75-30.66-10.88-17.73-35.42-27.12-59.13-25.82ZM333.15,302.98c-3.4.78-15.98,0-20.69,0-2.62,0-15,3.02-18.28,3.98-53.23,15.62-26.38,68.58,27.17,55.32,5.5-1.36,17.94-8.62,21.5-8.33,2.86.24,7.93,6.23,12.35,7.92,17.36,6.62,48.32-4.51,50.3-20.5,1.06-8.5-6.55-3.36-10.92-7.86-6.68-6.88-2.4-34.94-3.62-45.02-4.78-39.64-78.58-36.23-107.13-17.04-23.21,15.61-2.47,34.74,18.32,21.05,6.75-4.45,20.28-26.54,30.97-13.49,3.2,3.91,5.67,22.67.04,23.97ZM461.31,257.27c-44.23,2.68-56.73,42.42-20.33,63.11,5.89,3.35,25.55,9.78,26.68,15.14,1.51,7.2-7.44,8.56-14.29,6.68-10.37-2.84-21.73-23.2-33.63-18.09-10.29,4.42-1.83,22.78,3.09,29.19,9.17,11.94,13.61,6.85,27.16,7.7,14.34.9,26.21,4.29,41.1,1.74,29.52-5.04,47.54-30.78,25.27-51.28-8.26-7.6-41.75-19.14-43.59-24.19-1.35-3.7-.27-7.6,4.56-8.84,15.02-3.87,27.06,23.54,43.8,12.99,12.67-7.99-5.92-35.25-18.64-34.41-3.87.26-8.13,2.9-12.36,3.02-8.72.24-18.51-3.38-28.82-2.75ZM883.31,313.98h64.51c6.44,0,9.34-11.34,9.21-15.51-1.09-33.14-48.82-46.45-82.16-38.43-74.01,17.8-58.51,110.04,28.99,102.82,15.97-1.32,54.89-13.74,46.09-31.62-.8-1.62-4.9-5.11-7.04-5.29-3.98-.33-19.3,8.12-26.83,8.95-9.7,1.07-19.89-1.02-27.33-6.38-3.12-2.25-11.9-12.88-5.43-14.54ZM583.02,258.28c-11.11.17-57.53,1.58-48.73,18.44,2.79,5.34,13.84,5.81,18.81,12.55,15.46,20.96,26.48,49.59,40.59,71.65,4.3,6.6-4.35,20.77-12.93,13.62-5.48-4.57-3.59-17.11-16.63-19.33-25.72-4.38-37.13,22.28-17.27,35.18,27.81,18.06,65.52,2.2,81.65-19.74,14.3-19.45,31.71-77.56,46.12-88.11,6.76-4.95,24.5-6.47,18.76-17.54-5.65-10.89-65.8-10.43-56.83,8.71,1.19,2.53,5.29,5.11,6.09,7.98,1.65,5.93-3.21,23.46-12.46,22.33-4.54-.55-13-13.89-13.77-17.78-1.63-8.23,5.11-9.41,5.44-14.92.81-13.3-28.23-13.21-38.85-13.04Z"/>
    <rect class="cls-3" x="72.2" y="157.28" width="1053.04" height="284.54"/>
  </g>
  <g>
    <rect class="cls-2" x="102.49" y="156.02" width="1005.2" height="252.91"/>
    <path class="cls-1" d="M131.96,312.39c0-17.6,10.35-33.47,31.28-33.47,5.29,0,12.42,1.15,17.37,3.45h.92c0-2.07-.11-5.06-.35-7.13-2.65.11-5.06.34-8.4.34-4.14,0-8.51-3.68-8.51-12.31,0-7.48,3.91-12.88,10.01-12.88,5.41,0,5.29.46,9.09.46,5.41,0,8.74-1.15,13-1.15,2.53,0,6.56.81,6.56,6.44,0,3.1.58,57.85.58,62.45,0,1.96,1.15,2.3,2.42,2.3,1.5,0,4.95-.34,7.13-.34,4.94,0,8.62,4.14,8.62,11.85,0,8.4-4.25,12.65-11.04,12.65-2.42,0-7.25-1.15-10.58-1.15-3.8,0-5.29,1.15-8.63,1.15-2.99,0-9.66-1.61-8.86-10.81h-.35c-4.48,8.4-14.26,10.81-20.59,10.81-16.22,0-29.67-10.81-29.67-32.66ZM169.68,324.81c7.48,0,11.85-4.83,11.85-13.11s-4.37-13.23-11.85-13.23-11.73,5.06-11.73,13.23,4.26,13.11,11.73,13.11Z"/>
    <path class="cls-1" d="M227.87,332.4c0-7.82,3.22-11.85,8.74-11.85,1.96,0,3.91.34,6.33.34s3.68-.8,3.91-3.11c.35-2.64.46-5.41.46-8.51,0-5.41-1.15-5.87-3.68-5.87-2.19,0-4.26.34-6.79.34-3.8,0-7.82-3.45-7.82-11.5,0-7.47,3.1-12.88,9.43-12.88,5.41,0,6.56,1.04,11.39,1.04,6.33,0,10.24-1.04,13.92-1.04,3.91,0,7.59,2.3,7.59,8.74,0,4.71-2.3,9.54-2.3,16.1v14.49c0,1.61.69,2.18,1.61,2.18,1.38,0,3.22-.34,4.6-.34,5.52,0,8.86,4.03,8.86,11.85,0,8.4-3.79,12.65-10.81,12.65-6.1,0-11.27-1.04-17.37-1.04s-11.27,1.04-17.25,1.04c-7.13,0-10.81-4.25-10.81-12.65ZM253.75,247.64c11.27,0,15.87,4.83,15.87,13s-4.6,13.11-15.87,13.11-15.87-5.06-15.87-13.11,4.6-13,15.87-13Z"/>
    <path class="cls-1" d="M292.73,332.4c0-7.82,3.34-11.85,8.86-11.85.92,0,3.1.34,4.14.34,1.61,0,2.53-.46,2.53-1.96v-14.84c0-1.15-.35-1.61-1.84-1.61-.8,0-3.56.57-4.94.57-7.13,0-8.97-6.21-8.97-11.84,0-6.9,3.34-11.5,9.2-11.5,1.61,0,2.53.69,4.37.69,1.96,0,2.3-1.04,2.3-2.53,0-1.04-.46-4.03-.46-6.56,0-14.84,12.42-22.43,30.71-22.43,19.78,0,26.57,8.74,26.57,16.45,0,6.21-4.6,11.73-12.19,11.73s-8.63-7.71-14.38-7.71c-3.79,0-5.75,2.3-5.75,7.36v1.84c0,1.73.46,1.96,2.19,1.96,2.65,0,5.41-.8,8.05-.8,7.25,0,10.93,4.83,10.93,11.5s-3.91,11.27-11.62,11.27c-3.57,0-6.56-.35-7.82-.35s-1.73.58-1.73,1.73v14.72c0,2.07,1.03,2.3,2.42,2.3,1.84,0,5.64-.34,8.17-.34,4.95,0,8.63,4.14,8.63,11.85,0,8.4-4.25,12.65-11.04,12.65-4.14,0-12.19-1.04-20.13-1.04-6.1,0-11.27,1.04-17.37,1.04-7.02,0-10.81-4.25-10.81-12.65Z"/>
    <path class="cls-1" d="M363.22,332.4c0-7.82,3.34-11.85,8.86-11.85.92,0,3.1.34,4.14.34,1.61,0,2.53-.46,2.53-1.96v-14.84c0-1.15-.35-1.61-1.84-1.61-.8,0-3.56.57-4.94.57-7.13,0-8.97-6.21-8.97-11.84,0-6.9,3.34-11.5,9.2-11.5,1.61,0,2.53.69,4.37.69,1.96,0,2.3-1.04,2.3-2.53,0-1.04-.46-4.03-.46-6.56,0-14.84,12.42-22.43,30.71-22.43,19.78,0,26.57,8.74,26.57,16.45,0,6.21-4.6,11.73-12.19,11.73s-8.63-7.71-14.38-7.71c-3.79,0-5.75,2.3-5.75,7.36v1.84c0,1.73.46,1.96,2.19,1.96,2.65,0,5.41-.8,8.05-.8,7.25,0,10.93,4.83,10.93,11.5s-3.91,11.27-11.62,11.27c-3.57,0-6.56-.35-7.82-.35s-1.73.58-1.73,1.73v14.72c0,2.07,1.03,2.3,2.42,2.3,1.84,0,5.64-.34,8.17-.34,4.95,0,8.63,4.14,8.63,11.85,0,8.4-4.25,12.65-11.04,12.65-4.14,0-12.19-1.04-20.13-1.04-6.1,0-11.27,1.04-17.37,1.04-7.02,0-10.81-4.25-10.81-12.65ZM438.67,320.56c1.96,0,3.91.34,6.33.34s3.68-.8,3.91-3.11c.35-2.64.46-5.41.46-8.51,0-5.41-1.15-5.87-3.68-5.87-2.19,0-4.26.34-6.79.34-3.8,0-7.82-3.45-7.82-11.5,0-7.47,3.1-12.88,9.43-12.88,5.41,0,6.56,1.04,11.39,1.04,6.33,0,10.24-1.04,13.92-1.04,3.91,0,7.59,2.3,7.59,8.74,0,4.71-2.3,9.54-2.3,16.1v14.49c0,1.61.69,2.18,1.61,2.18,1.38,0,3.22-.34,4.6-.34,5.52,0,8.86,4.03,8.86,11.85,0,8.4-3.79,12.65-10.81,12.65-6.1,0-11.27-1.04-17.37-1.04s-11.27,1.04-17.25,1.04c-7.13,0-10.81-4.25-10.81-12.65,0-7.82,3.22-11.85,8.74-11.85ZM455.8,247.64c11.27,0,15.87,4.83,15.87,13s-4.6,13.11-15.87,13.11-15.87-5.06-15.87-13.11,4.6-13,15.87-13Z"/>
    <path class="cls-1" d="M533.08,300.43c0-.58.12-1.15.23-1.84-1.38-.12-2.65-.23-3.91-.23-8.62,0-12.77,5.29-12.77,12.77s5.18,11.96,11.73,11.96c10.12,0,12.54-6.9,20.47-6.9,4.49,0,7.94,3.22,7.94,8.86,0,11.5-13.92,19.78-31.05,19.78-22.66,0-34.27-13-34.27-33.12,0-17.02,13.57-32.66,36.92-32.66,18.52,0,29.1,6.79,29.1,18.4,0,7.48-5.06,13.11-12.54,13.11s-11.85-2.99-11.85-10.12Z"/>
    <path class="cls-1" d="M596.21,345.51c-14.61,0-20.47-8.62-20.47-19.78,0-9.78,1.61-18.75,1.61-20.82,0-1.04-.46-1.38-1.5-1.38-1.5,0-2.76.34-4.26.34-5.41,0-8.51-4.03-8.51-11.85,0-8.4,3.79-12.65,10.93-12.65,3.34,0,6.44.58,9.43.58,3.33,0,6.44-.58,10.12-.58,5.06,0,9.78,2.76,9.78,12.65,0,8.05-2.3,15.07-2.3,19.9,0,7.13,2.99,9.78,8.86,9.78,5.29,0,9.89-3.33,9.89-11.5v-3.79c0-2.53-1.15-2.88-1.73-2.88l-3.11.11c-4.95,0-8.62-3.91-8.62-11.62,0-8.4,4.25-12.65,11.04-12.65,2.19,0,5.41.58,9.2.58,2.42,0,5.06-.58,7.71-.58,7.13,0,9.43,4.37,9.43,10.24s-2.3,16.79-2.3,25.3v1.38c0,2.76,1.15,3.22,3.68,3.22,1.61,0,2.88-.34,4.71-.34,4.14,0,8.63,3.68,8.63,12.31,0,7.82-3.91,13.57-10.47,13.57-4.03,0-6.09-.8-9.32-.8s-6.21.8-9.08.8c-7.59,0-9.2-7.59-9.55-10.35h-1.04c-4.83,7.13-12.08,10.81-22.77,10.81Z"/>
    <path class="cls-1" d="M664.86,332.4c0-7.82,3.22-11.85,8.74-11.85,1.38,0,2.76.34,4.6.34,2.53,0,3.56-.8,3.79-3.11,1.04-11.38.92-24.04.58-38.3-.12-3.79-1.15-4.25-3.79-4.25-1.61,0-2.99.34-4.95.34-3.8,0-7.82-3.68-7.82-12.31,0-7.48,3.91-12.88,11.73-12.88,5.41,0,5.29.46,9.08.46,5.75,0,9.43-1.15,12.88-1.15,4.37,0,8.63,2.3,8.63,9.32,0,6.44-1.5,10.01-2.07,17.14-.34,4.26-.58,28.52-.12,42.55,0,1.61.69,2.18,1.5,2.18,1.38,0,3.22-.34,4.6-.34,5.52,0,8.86,4.03,8.86,11.85,0,8.4-3.8,12.65-10.81,12.65-6.1,0-11.27-1.15-17.37-1.15s-11.27,1.15-17.25,1.15c-7.13,0-10.81-4.25-10.81-12.65Z"/>
    <path class="cls-1" d="M732.6,321.48c0-6.67.58-14.84.58-17.48,0-1.5-.46-2.53-2.3-2.53s-2.76.69-4.37.69c-5.87,0-9.2-5.75-9.2-11.5s1.73-11.73,8.97-11.73c1.38,0,4.14.46,4.95.46,1.38,0,1.73-.35,1.73-1.61v-10.01c0-8.05,4.94-11.85,12.65-11.85s11.96,3.79,11.96,12.08v10.01c0,1.15.58,1.73,1.84,1.73,1.96,0,6.9-.35,12.65-.35,7.71,0,11.62,4.83,11.62,11.27,0,6.79-3.68,11.5-10.93,11.5-4.25,0-8.74-.8-12.88-.8-1.73,0-2.3.23-2.3,2.07v15.3c0,3.33.81,4.83,3.8,4.83,2.18,0,3.79-1.84,4.37-5.64.92-4.6,2.76-8.28,8.86-8.28,7.36,0,9.32,5.29,9.32,11.04,0,14.83-9.55,24.38-26.22,24.38-15.3,0-25.07-5.41-25.07-23.58Z"/>
    <path class="cls-1" d="M792.54,312.85c0-19.5,10.65-29.7,23.4-29.7,10.2,0,14.25,4.65,14.25,12,0,7.8-6.45,8.7-6.45,14.25,0,3.75,3.6,6.9,9.45,6.9,7.95,0,12.15-4.5,12.15-12.6v-21.3c0-5.25-2.25-7.05-5.25-7.05s-5.85.45-9.3.45c-6.15,0-12.3-4.95-12.3-16.2,0-9.9,5.1-16.95,15.15-16.95,7.95,0,15.6.75,25.65.75,8.4,0,14.7-.75,21.3-.75,10.05,0,15.15,7.05,15.15,16.95,0,11.25-5.25,16.2-10.2,16.2-3.3,0-4.95-.45-7.05-.45-3.45,0-4.05,1.5-4.05,6.3v24.6c0,25.05-15,39.15-41.7,39.15-21.45,0-40.2-10.65-40.2-32.55Z"/>
    <path class="cls-1" d="M895.44,303.11c0-24.9,19.8-43.95,48.9-43.95s40.8,15.6,40.8,29.55c0,13.05-4.8,16.95-15,16.95h-39.45c1.8,8.25,7.65,11.85,16.95,11.85,15.3,0,18.9-6.9,27.9-6.9,5.55,0,9.3,4.05,9.3,10.65,0,14.25-15.75,23.85-39.75,23.85-32.7,0-49.65-18-49.65-42ZM948.84,292.61c3.45,0,4.05-.9,4.05-3.45,0-4.5-3.9-8.25-9.6-8.25-6.9,0-11.1,4.35-12.6,11.7h18.15Z"/>
    <path class="cls-1" d="M1010.49,314.65c0-8.7.75-19.35.75-22.8,0-1.95-.6-3.3-3-3.3s-3.6.9-5.7.9c-7.65,0-12-7.5-12-15s2.25-15.3,11.7-15.3c1.8,0,5.4.6,6.45.6,1.8,0,2.25-.45,2.25-2.1v-13.05c0-10.5,6.45-15.45,16.5-15.45s15.6,4.95,15.6,15.75v13.05c0,1.5.75,2.25,2.4,2.25,2.55,0,9-.45,16.5-.45,10.05,0,15.15,6.3,15.15,14.7,0,8.85-4.8,15-14.25,15-5.55,0-11.4-1.05-16.8-1.05-2.25,0-3,.3-3,2.7v19.95c0,4.35,1.05,6.3,4.95,6.3,2.85,0,4.95-2.4,5.7-7.35,1.2-6,3.6-10.8,11.55-10.8,9.6,0,12.15,6.9,12.15,14.4,0,19.35-12.45,31.8-34.2,31.8-19.95,0-32.7-7.05-32.7-30.75Z"/>
  </g>
</svg>