<?xml version="1.0" encoding="UTF-8"?>
<svg id="Ebene_1" data-name="Ebene 1" xmlns="http://www.w3.org/2000/svg" viewBox="0 0 446.57 142">
  <defs>
    <style>
      .cls-1 {
        fill: #fff;
      }

      .cls-2 {
        fill: #f57e20;
      }
    </style>
  </defs>
  <path class="cls-2" d="M267.84,103.17c0,25.89-18.02,38.83-54.05,38.83-13.15,0-24.84-1.51-35.05-4.51l3.67-16.48c11.75,4.06,22.91,6.09,33.48,6.09,23.79,0,35.68-6.72,35.68-20.15,0-6.79-3.08-12.59-9.24-17.42-4.13-3.22-12.24-7.52-24.35-12.91-12.73-5.67-21.66-10.88-26.76-15.64-7.07-6.58-10.6-14.83-10.6-24.77s3.6-18.79,10.81-25.29c8.05-7.28,19.42-10.91,34.11-10.91,16.65,0,28.06,1.09,34.21,3.25l-2.52,16.69c-10.64-3.36-21.93-5.04-33.9-5.04-17.98,0-26.97,6.02-26.97,18.05,0,5.81,2.59,10.67,7.77,14.59,3.36,2.45,10.77,6.16,22.25,11.12,13.08,5.67,22.53,11.06,28.34,16.16,8.75,7.7,13.12,17.14,13.12,28.34Z"/>
  <g>
    <path class="cls-1" d="M30.09,91.97c0,7.83-5.45,11.74-16.35,11.74-3.98,0-7.51-.46-10.6-1.37l1.11-4.98c3.55,1.23,6.93,1.84,10.12,1.84,7.19,0,10.79-2.03,10.79-6.09,0-2.05-.93-3.81-2.79-5.27-1.25-.97-3.7-2.27-7.36-3.9-3.85-1.71-6.55-3.29-8.09-4.73-2.14-1.99-3.21-4.49-3.21-7.49s1.09-5.68,3.27-7.65c2.43-2.2,5.87-3.3,10.31-3.3,5.04,0,8.48.33,10.35.98l-.76,5.05c-3.22-1.02-6.63-1.52-10.25-1.52-5.44,0-8.16,1.82-8.16,5.46,0,1.76.78,3.23,2.35,4.41,1.02.74,3.26,1.86,6.73,3.36,3.96,1.71,6.81,3.34,8.57,4.89,2.64,2.33,3.97,5.18,3.97,8.57Z"/>
    <path class="cls-1" d="M83.96,81.37c0,6.83-2,12.3-6,16.39-4,4.09-8.62,6.14-13.87,6.14s-9.45-1.88-13.25-5.63-5.7-8.83-5.7-15.22c0-6.92,2-12.4,6-16.46s8.62-6.08,13.87-6.08,9.45,1.88,13.25,5.63,5.7,8.83,5.7,15.22ZM78.31,82.1c0-5.46-1.43-9.68-4.3-12.68-2.87-2.99-6.17-4.49-9.92-4.49-3.47,0-6.56,1.58-9.27,4.73-2.71,3.15-4.06,7.36-4.06,12.63s1.44,9.72,4.33,12.71c2.89,3,6.19,4.49,9.92,4.49,3.47,0,6.55-1.6,9.25-4.79,2.7-3.2,4.05-7.4,4.05-12.6Z"/>
    <path class="cls-1" d="M130.47,97.62l-.41,4.73c-2.6.78-5.44,1.17-8.51,1.17-7.28,0-12.75-1.99-16.41-5.98-3.66-3.99-5.49-8.86-5.49-14.62s2.04-11.23,6.13-15.6c4.08-4.37,9.57-6.55,16.47-6.55,1.9,0,3.91.29,6.03.86l-.89,5.05c-2.43-.76-4.6-1.14-6.51-1.14-5.12,0-9,1.59-11.65,4.76-2.65,3.17-3.97,7.06-3.97,11.65s1.52,8.69,4.57,12.03c3.05,3.34,7.26,5.01,12.63,5.01,2.05,0,4.72-.45,8-1.36Z"/>
    <path class="cls-1" d="M178.76,102.66h-6.95c0-.23-1.21-2.07-3.62-5.52-2.79-4-5.34-7.3-7.65-9.9-3.13-3.53-5.45-5.3-6.95-5.3h-.98c0,4.95.11,11.86.32,20.72h-5.97c.32-6.56.48-13.79.48-21.71,0-7.45-.16-13.99-.48-19.61h5.97c-.21,5.63-.32,11.34-.32,17.14h.73c1.16,0,4.07-2.7,8.71-8.09,4.64-5.4,6.97-8.41,6.97-9.05h6.6c0,.63-2.26,3.25-6.78,7.86-4.52,4.6-7.88,7.7-10.08,9.28v.32c2.43.93,6.48,5.13,12.16,12.6,5.23,6.88,7.84,10.63,7.84,11.27Z"/>
    <path class="cls-1" d="M222.2,97.62l-.41,4.73c-2.6.78-5.44,1.17-8.51,1.17-7.28,0-12.75-1.99-16.41-5.98-3.66-3.99-5.49-8.86-5.49-14.62s2.04-11.23,6.13-15.6c4.08-4.37,9.57-6.55,16.47-6.55,1.9,0,3.91.29,6.03.86l-.89,5.05c-2.43-.76-4.6-1.14-6.51-1.14-5.12,0-9,1.59-11.65,4.76-2.65,3.17-3.97,7.06-3.97,11.65s1.52,8.69,4.57,12.03c3.05,3.34,7.26,5.01,12.63,5.01,2.05,0,4.72-.45,8-1.36Z"/>
    <path class="cls-1" d="M272.42,102.66h-6.7c0-1.42-1.33-5.87-4-13.36h-18.31c-2.62,7.38-3.94,11.84-3.94,13.36h-6.41c0-.78,2.73-7.55,8.19-20.3,5.46-12.75,8.19-19.76,8.19-21.03h7.36c0,1.25,2.6,8.16,7.81,20.73s7.81,19.43,7.81,20.6ZM260.27,85.14c-4.97-12.42-7.46-19.02-7.46-19.8h-.35c0,.66-2.57,7.26-7.71,19.8h15.52Z"/>
    <path class="cls-1" d="M319.38,102.66h-4.44c0-.36-3.47-5.43-10.41-15.2-7.26-10.26-11.39-16.74-12.41-19.42h-.32c.38,5.1.57,9.47.57,13.11,0,7.11.16,14.28.48,21.52h-5.33c.36-6.88.54-14.11.54-21.71s-.18-14.01-.54-19.61h6.09c0,.59,3.19,5.42,9.58,14.47,6.69,9.52,10.49,15.72,11.43,18.6h.32c-.36-5.16-.54-9.54-.54-13.14,0-7.83-.15-14.47-.44-19.93h5.43c-.36,5.61-.54,12.15-.54,19.61s.18,14.83.54,21.71Z"/>
    <path class="cls-1" d="M376.08,81.37c0,6.83-2,12.3-6,16.39-4,4.09-8.62,6.14-13.87,6.14s-9.45-1.88-13.25-5.63-5.7-8.83-5.7-15.22c0-6.92,2-12.4,6-16.46s8.62-6.08,13.87-6.08,9.45,1.88,13.25,5.63,5.7,8.83,5.7,15.22ZM370.43,82.1c0-5.46-1.43-9.68-4.3-12.68-2.87-2.99-6.17-4.49-9.92-4.49-3.47,0-6.56,1.58-9.27,4.73-2.71,3.15-4.06,7.36-4.06,12.63s1.44,9.72,4.33,12.71c2.89,3,6.19,4.49,9.92,4.49,3.47,0,6.55-1.6,9.25-4.79,2.7-3.2,4.05-7.4,4.05-12.6Z"/>
    <path class="cls-1" d="M399.99,102.66h-6.03c.32-6.86.48-14.09.48-21.71s-.16-14.03-.48-19.61h6.03c-.3,5.78-.44,12.31-.44,19.61,0,7.66.15,14.9.44,21.71Z"/>
    <path class="cls-1" d="M445.87,98l-.19,4.67h-24.98c.25-5.23.38-12.46.38-21.71,0-7.96-.13-14.49-.38-19.61h5.9c-.25,4.27-.38,10.81-.38,19.61,0,7.24-.12,13.03-.35,17.39,6.35,0,13.01-.12,20-.35Z"/>
  </g>
  <path class="cls-2" d="M279.18,138.14c0,1.07-.38,1.98-1.13,2.73-.75.75-1.67,1.13-2.74,1.13s-1.99-.38-2.75-1.13c-.76-.75-1.14-1.66-1.14-2.73s.38-1.99,1.14-2.75,1.67-1.14,2.75-1.14,1.98.38,2.74,1.14c.76.76,1.13,1.67,1.13,2.75ZM278.58,138.13c0-.91-.32-1.69-.96-2.33-.64-.64-1.41-.96-2.32-.96s-1.69.32-2.33.96c-.64.64-.96,1.42-.96,2.33s.32,1.69.96,2.33c.64.64,1.42.96,2.33.96s1.68-.32,2.32-.96.96-1.42.96-2.33ZM277.19,140.08h-.94c-.25-.75-.43-1.21-.57-1.39s-.34-.26-.63-.26c-.12,0-.24,0-.35,0,0,.54,0,1.09.03,1.64h-.88c.03-.64.04-1.36.04-2.16s-.02-1.43-.04-1.97h.55c.06,0,.2,0,.4,0,.2,0,.39,0,.56,0,.97,0,1.45.33,1.45,1,0,.53-.28.9-.83,1.11v.04c.21.06.4.23.56.5.16.28.38.78.65,1.5ZM276,137.16c0-.42-.27-.63-.81-.63-.2,0-.38.01-.53.04.02.33.03.76.03,1.28.11,0,.21,0,.3,0,.67,0,1.01-.23,1.01-.7Z"/>
</svg>