<?xml version="1.0" encoding="UTF-8"?>
<svg id="Ebene_1" data-name="Ebene 1" xmlns="http://www.w3.org/2000/svg" viewBox="0 0 1200 430">
  <defs>
    <style>
      .cls-1 {
        fill: none;
      }

      .cls-2 {
        fill: #d5e05b;
      }
    </style>
  </defs>
  <rect class="cls-2" width="1200" height="430"/>
  <g>
    <rect class="cls-1" x="76.42" y="37.02" width="1047.17" height="355.97"/>
    <path d="M137.81,278.44v-90.63h18.13v90.63h-18.13ZM155.94,296.56v-18.13h54.38v-90.63h18.13v108.75h-72.5Z"/>
    <path d="M246.56,296.56v-108.75h72.5v18.13h-54.38v90.63h-18.13ZM319.06,296.56v-90.63h18.13v90.63h-18.13Z"/>
    <path d="M355.31,169.68v-18.13h18.13v18.13h-18.13ZM355.31,296.56v-108.75h18.13v108.75h-18.13Z"/>
    <path d="M391.56,278.44v-72.5h18.13v72.5h-18.13ZM409.69,296.56v-18.13h54.38v-72.5h-54.38v-18.13h54.38v-54.38h18.13v163.13h-72.5Z"/>
    <path d="M500.31,278.44v-72.5h18.13v18.13h54.38v-18.13h18.13v36.25h-72.5v36.25h-18.13ZM518.44,205.93v-18.13h54.38v18.13h-54.38ZM518.44,296.56v-18.13h54.38v18.13h-54.38ZM572.81,278.44v-18.12h18.13v18.12h-18.13Z"/>
    <path d="M609.06,278.44v-36.25h18.13v36.25h-18.13ZM627.19,205.93v-18.13h54.38v18.13h-54.38ZM627.19,296.56v-18.13h54.38v-36.25h-54.38v-18.12h54.38v-18.13h18.13v90.63h-72.5Z"/>
    <path d="M717.81,296.56v-163.13h18.13v163.13h-18.13Z"/>
    <path d="M754.06,169.68v-18.13h18.13v18.13h-18.13ZM754.06,296.56v-108.75h18.13v108.75h-18.13Z"/>
    <path d="M790.31,242.18v-36.25h18.13v18.13h18.12v18.12h-36.25ZM790.31,296.56v-18.13h54.38v18.13h-54.38ZM808.44,205.93v-18.13h54.38v18.13h-54.38ZM844.69,278.44v-18.12h-18.13v-18.13h36.25v36.25h-18.12Z"/>
    <path d="M880.94,278.44v-126.88h18.13v36.25h36.25v18.13h-36.25v72.5h-18.13ZM899.06,296.56v-18.13h36.25v18.13h-36.25Z"/>
    <path d="M953.44,278.44v-36.25h18.13v36.25h-18.13ZM971.56,205.93v-18.13h54.38v18.13h-54.38ZM971.56,296.56v-18.13h54.38v-36.25h-54.38v-18.12h54.38v-18.13h18.13v90.63h-72.5Z"/>
  </g>
</svg>